<svg width="1923" height="571" viewBox="0 0 1923 571" fill="none" xmlns="http://www.w3.org/2000/svg">
<g id="offer">
<g id="text">
<path id="Stare Kr&#195;&#179;le" d="M1752.93 562.828C1751.35 562.828 1749.85 562.535 1748.44 561.948C1747.04 561.391 1745.89 560.525 1745.01 559.352C1744.16 558.179 1743.74 556.712 1743.74 554.952C1743.74 553.427 1744.03 552.239 1744.62 551.388C1745.23 550.537 1745.98 549.936 1746.86 549.584C1747.74 549.232 1748.58 549.056 1749.37 549.056C1748.58 549.907 1747.97 550.845 1747.56 551.872C1747.15 552.899 1746.95 553.925 1746.95 554.952C1746.95 556.037 1747.18 557.049 1747.65 557.988C1748.15 558.927 1748.9 559.675 1749.9 560.232C1750.89 560.819 1752.15 561.112 1753.68 561.112C1755 561.112 1756.29 560.863 1757.55 560.364C1758.81 559.895 1759.84 559.191 1760.63 558.252C1761.45 557.284 1761.86 556.096 1761.86 554.688C1761.86 553.427 1761.54 552.341 1760.9 551.432C1760.25 550.523 1759.41 549.716 1758.39 549.012C1757.39 548.308 1756.32 547.633 1755.18 546.988C1754.03 546.343 1752.95 545.668 1751.92 544.964C1750.92 544.231 1750.1 543.395 1749.46 542.456C1748.81 541.517 1748.49 540.388 1748.49 539.068C1748.49 537.836 1748.78 536.545 1749.37 535.196C1749.95 533.847 1750.79 532.571 1751.88 531.368C1752.99 530.165 1754.31 529.197 1755.84 528.464C1757.39 527.701 1759.12 527.32 1761.03 527.32C1762.76 527.32 1763.96 527.745 1764.64 528.596C1765.31 529.417 1765.65 530.459 1765.65 531.72C1765.65 532.776 1765.46 533.92 1765.08 535.152C1764.72 536.355 1764.28 537.513 1763.76 538.628C1763.23 539.713 1762.73 540.637 1762.26 541.4C1761.73 541.283 1761.35 541.063 1761.12 540.74C1760.91 540.388 1760.81 539.977 1760.81 539.508C1760.81 538.892 1760.94 538.188 1761.2 537.396C1761.47 536.604 1761.76 535.783 1762.08 534.932C1762.44 534.081 1762.74 533.26 1763.01 532.468C1763.27 531.647 1763.4 530.913 1763.4 530.268C1763.4 529.681 1763.23 529.227 1762.88 528.904C1762.52 528.552 1761.88 528.376 1760.94 528.376C1759.56 528.376 1758.29 528.699 1757.11 529.344C1755.94 529.989 1754.91 530.825 1754.03 531.852C1753.15 532.849 1752.46 533.905 1751.96 535.02C1751.49 536.135 1751.26 537.147 1751.26 538.056C1751.26 539.141 1751.57 540.08 1752.18 540.872C1752.83 541.635 1753.65 542.339 1754.65 542.984C1755.65 543.6 1756.7 544.231 1757.82 544.876C1758.96 545.492 1760.03 546.181 1761.03 546.944C1762.03 547.707 1762.83 548.616 1763.45 549.672C1764.09 550.699 1764.42 551.96 1764.42 553.456C1764.42 554.981 1764.08 556.331 1763.4 557.504C1762.73 558.648 1761.82 559.616 1760.68 560.408C1759.56 561.2 1758.33 561.801 1756.98 562.212C1755.63 562.623 1754.28 562.828 1752.93 562.828ZM1771.33 561.024C1768.72 561.024 1767.41 559.572 1767.41 556.668C1767.41 555.377 1767.65 553.793 1768.12 551.916C1768.62 550.009 1769.23 548.059 1769.97 546.064C1769.67 546.005 1769.39 545.961 1769.13 545.932C1768.87 545.873 1768.62 545.8 1768.38 545.712V544.92C1768.62 544.949 1768.9 544.979 1769.22 545.008C1769.54 545.037 1769.91 545.067 1770.32 545.096C1770.93 543.512 1771.59 541.987 1772.3 540.52C1773 539.024 1773.69 537.704 1774.37 536.56C1775.07 535.387 1775.73 534.463 1776.35 533.788C1776.99 533.084 1777.53 532.732 1777.97 532.732C1778.21 532.732 1778.41 532.82 1778.59 532.996C1778.8 533.143 1778.9 533.377 1778.9 533.7C1778.9 534.199 1778.59 535.02 1777.97 536.164C1777.36 537.279 1776.6 538.613 1775.69 540.168C1774.78 541.723 1773.9 543.409 1773.05 545.228H1774.67C1775.64 545.228 1776.65 545.213 1777.71 545.184C1778.8 545.155 1779.88 545.081 1780.97 544.964V545.756C1777.77 546.108 1775.19 546.284 1773.22 546.284H1772.56C1771.89 547.839 1771.32 549.437 1770.85 551.08C1770.38 552.723 1770.14 554.321 1770.14 555.876C1770.14 557.137 1770.33 558.047 1770.71 558.604C1771.1 559.132 1771.73 559.396 1772.61 559.396C1774.13 559.396 1775.63 558.721 1777.09 557.372C1778.56 556.023 1779.85 554.189 1780.97 551.872L1781.54 552.312C1780.83 553.955 1779.94 555.436 1778.85 556.756C1777.8 558.076 1776.62 559.117 1775.33 559.88C1774.04 560.643 1772.71 561.024 1771.33 561.024ZM1782.25 561.068C1781.34 561.068 1780.58 560.76 1779.96 560.144C1779.32 559.557 1778.99 558.648 1778.99 557.416C1778.99 556.36 1779.23 555.231 1779.7 554.028C1780.17 552.796 1780.81 551.593 1781.63 550.42C1782.45 549.217 1783.38 548.132 1784.4 547.164C1785.46 546.167 1786.56 545.375 1787.7 544.788C1788.88 544.201 1790.04 543.908 1791.18 543.908C1792.32 543.908 1793.28 544.216 1794.04 544.832C1794.8 545.419 1795.18 546.211 1795.18 547.208C1795.18 547.941 1794.98 548.44 1794.57 548.704C1794.19 548.968 1793.67 549.1 1793.03 549.1C1793.18 548.572 1793.25 548.059 1793.25 547.56C1793.25 546.885 1793.09 546.313 1792.76 545.844C1792.44 545.345 1791.88 545.096 1791.09 545.096C1790.27 545.096 1789.44 545.389 1788.58 545.976C1787.73 546.533 1786.91 547.296 1786.12 548.264C1785.33 549.203 1784.62 550.229 1784.01 551.344C1783.39 552.459 1782.91 553.559 1782.56 554.644C1782.2 555.729 1782.03 556.697 1782.03 557.548C1782.03 558.692 1782.42 559.264 1783.22 559.264C1783.89 559.264 1784.62 558.956 1785.42 558.34C1786.21 557.695 1787.02 556.888 1787.84 555.92C1788.69 554.923 1789.49 553.896 1790.26 552.84C1791.02 551.784 1791.69 550.816 1792.28 549.936C1792.4 549.76 1792.47 549.672 1792.5 549.672C1792.76 549.701 1793.12 549.819 1793.56 550.024C1794 550.2 1794.22 550.449 1794.22 550.772C1794.22 551.036 1794.08 551.403 1793.82 551.872C1793.56 552.312 1793.26 552.825 1792.94 553.412C1792.62 553.999 1792.32 554.6 1792.06 555.216C1791.8 555.803 1791.66 556.36 1791.66 556.888C1791.66 557.328 1791.78 557.768 1792.02 558.208C1792.25 558.619 1792.63 558.824 1793.16 558.824C1793.95 558.824 1794.99 558.252 1796.28 557.108C1797.58 555.935 1798.88 554.189 1800.2 551.872L1800.64 552.312C1800.02 553.896 1799.23 555.289 1798.26 556.492C1797.3 557.695 1796.26 558.633 1795.14 559.308C1794.06 559.983 1792.98 560.32 1791.93 560.32C1790.84 560.32 1790.04 559.997 1789.51 559.352C1789.01 558.707 1788.76 558.003 1788.76 557.24C1788.76 556.859 1788.8 556.433 1788.89 555.964C1787.63 557.665 1786.47 558.941 1785.42 559.792C1784.39 560.643 1783.33 561.068 1782.25 561.068ZM1806.91 560.144C1805.92 560.144 1805.12 559.88 1804.54 559.352C1803.98 558.824 1803.7 558.135 1803.7 557.284C1803.7 556.404 1803.91 555.48 1804.32 554.512C1804.73 553.544 1805.12 552.591 1805.5 551.652C1805.92 550.684 1806.12 549.819 1806.12 549.056C1806.12 548.117 1805.84 547.428 1805.28 546.988C1804.76 546.519 1804.21 546.093 1803.66 545.712C1802.98 547.443 1802.28 549.085 1801.54 550.64C1800.81 552.195 1800.21 553.368 1799.74 554.16L1799.34 553.412C1799.76 552.649 1800.28 551.535 1800.93 550.068C1801.6 548.601 1802.26 546.929 1802.91 545.052C1802.62 544.759 1802.47 544.407 1802.47 543.996C1802.47 543.116 1802.72 542.397 1803.22 541.84C1803.72 541.283 1804.08 541.004 1804.32 541.004C1804.64 541.004 1804.82 541.151 1804.84 541.444C1804.9 541.708 1804.93 541.913 1804.93 542.06C1804.93 542.207 1804.84 542.5 1804.67 542.94C1804.52 543.351 1804.45 543.6 1804.45 543.688C1804.45 544.099 1804.67 544.48 1805.11 544.832C1805.58 545.155 1806.11 545.536 1806.69 545.976C1807.28 546.387 1807.79 546.9 1808.23 547.516C1808.7 548.103 1808.94 548.865 1808.94 549.804C1808.94 550.684 1808.75 551.579 1808.36 552.488C1808.01 553.397 1807.65 554.263 1807.26 555.084C1806.91 555.905 1806.74 556.624 1806.74 557.24C1806.74 557.768 1806.87 558.12 1807.13 558.296C1807.4 558.472 1807.7 558.56 1808.06 558.56C1808.76 558.56 1809.48 558.34 1810.21 557.9C1810.98 557.46 1811.71 556.903 1812.41 556.228C1813.12 555.553 1813.75 554.849 1814.3 554.116C1814.86 553.353 1815.27 552.649 1815.54 552.004L1816.11 552.444C1815.55 553.676 1814.79 554.893 1813.82 556.096C1812.85 557.269 1811.77 558.237 1810.56 559C1809.39 559.763 1808.17 560.144 1806.91 560.144ZM1819.35 560.936C1817.56 560.936 1816.21 560.437 1815.3 559.44C1814.42 558.472 1813.98 557.269 1813.98 555.832C1813.98 554.512 1814.3 553.119 1814.95 551.652C1815.62 550.185 1816.5 548.807 1817.59 547.516C1818.7 546.225 1819.92 545.184 1821.24 544.392C1822.56 543.571 1823.87 543.16 1825.16 543.16C1825.83 543.16 1826.45 543.336 1827.01 543.688C1827.59 544.04 1827.89 544.759 1827.89 545.844C1827.89 546.959 1827.55 548.015 1826.87 549.012C1826.23 549.98 1825.36 550.845 1824.28 551.608C1823.22 552.371 1822.05 553.001 1820.76 553.5C1819.5 553.969 1818.23 554.263 1816.97 554.38C1816.91 554.673 1816.87 554.952 1816.84 555.216C1816.81 555.48 1816.8 555.729 1816.8 555.964C1816.8 556.873 1817.03 557.724 1817.5 558.516C1818 559.279 1818.92 559.66 1820.27 559.66C1821.53 559.66 1822.78 559.308 1824.01 558.604C1825.25 557.871 1826.39 556.917 1827.45 555.744C1828.5 554.571 1829.4 553.28 1830.13 551.872L1830.66 552.268C1829.87 554.028 1828.85 555.553 1827.62 556.844C1826.42 558.135 1825.1 559.132 1823.66 559.836C1822.25 560.569 1820.82 560.936 1819.35 560.936ZM1817.19 553.544C1817.99 553.28 1818.88 552.899 1819.88 552.4C1820.87 551.872 1821.83 551.256 1822.74 550.552C1823.68 549.848 1824.44 549.071 1825.03 548.22C1825.64 547.369 1825.95 546.475 1825.95 545.536C1825.95 545.213 1825.89 544.964 1825.77 544.788C1825.66 544.612 1825.41 544.524 1825.03 544.524C1824.32 544.524 1823.57 544.803 1822.78 545.36C1821.99 545.888 1821.23 546.592 1820.49 547.472C1819.76 548.352 1819.1 549.32 1818.51 550.376C1817.93 551.432 1817.49 552.488 1817.19 553.544ZM1862.46 562.828C1861.81 562.828 1861.07 562.447 1860.22 561.684C1859.37 560.921 1858.46 559.909 1857.49 558.648C1856.55 557.387 1855.61 556.023 1854.67 554.556C1853.76 553.06 1852.91 551.579 1852.12 550.112C1851.36 548.645 1850.71 547.34 1850.18 546.196L1845.92 560.012C1845.71 560.687 1845.39 561.156 1844.95 561.42C1844.51 561.713 1844.02 561.889 1843.5 561.948C1843 562.007 1842.5 562.036 1842 562.036C1842.38 561.215 1842.76 560.276 1843.14 559.22C1843.55 558.164 1844.02 556.888 1844.55 555.392C1845.11 553.896 1845.75 552.077 1846.49 549.936C1847.22 547.795 1848.09 545.243 1849.08 542.28C1850.11 539.288 1851.31 535.783 1852.69 531.764C1852.78 531.529 1852.9 531.207 1853.04 530.796C1853.19 530.356 1853.26 529.96 1853.26 529.608C1853.26 529.285 1853.19 529.036 1853.04 528.86C1852.9 528.655 1852.62 528.552 1852.21 528.552C1851.5 528.552 1850.81 528.845 1850.14 529.432C1849.49 529.989 1848.91 530.708 1848.38 531.588C1847.88 532.468 1847.49 533.377 1847.19 534.316C1846.9 535.255 1846.75 536.091 1846.75 536.824C1846.75 537.381 1846.83 537.88 1846.97 538.32C1846 538.32 1845.31 538.085 1844.9 537.616C1844.52 537.117 1844.33 536.516 1844.33 535.812C1844.33 534.815 1844.63 533.817 1845.21 532.82C1845.8 531.823 1846.55 530.913 1847.46 530.092C1848.39 529.241 1849.36 528.567 1850.36 528.068C1851.39 527.569 1852.31 527.32 1853.13 527.32C1853.92 527.32 1854.45 527.54 1854.72 527.98C1855.01 528.42 1855.16 528.904 1855.16 529.432C1855.16 529.755 1855.11 530.077 1855.02 530.4C1854.97 530.723 1854.89 531.031 1854.8 531.324L1851.11 543.292C1851.52 542.705 1852.05 542.163 1852.69 541.664C1853.37 541.165 1854.1 540.593 1854.89 539.948C1856.21 538.892 1857.62 537.66 1859.12 536.252C1860.64 534.844 1862.09 533.363 1863.47 531.808C1864.85 530.253 1865.99 528.757 1866.9 527.32C1867.05 527.496 1867.15 527.804 1867.21 528.244C1867.27 528.684 1867.3 529.021 1867.3 529.256C1867.3 530.165 1866.92 531.163 1866.16 532.248C1865.42 533.333 1864.45 534.463 1863.25 535.636C1862.05 536.78 1860.73 537.924 1859.29 539.068C1857.85 540.183 1856.43 541.239 1855.02 542.236C1853.65 543.233 1852.4 544.099 1851.28 544.832C1852.16 546.328 1853.01 547.751 1853.84 549.1C1854.69 550.449 1855.6 551.769 1856.56 553.06C1857.56 554.351 1858.72 555.671 1860.04 557.02C1861.36 558.369 1862.96 559.821 1864.84 561.376C1864.63 561.757 1864.31 562.095 1863.87 562.388C1863.43 562.681 1862.96 562.828 1862.46 562.828ZM1872.31 560.144C1871.31 560.144 1870.52 559.88 1869.94 559.352C1869.38 558.824 1869.1 558.135 1869.1 557.284C1869.1 556.404 1869.3 555.48 1869.72 554.512C1870.13 553.544 1870.52 552.591 1870.9 551.652C1871.31 550.684 1871.52 549.819 1871.52 549.056C1871.52 548.117 1871.24 547.428 1870.68 546.988C1870.16 546.519 1869.61 546.093 1869.06 545.712C1868.38 547.443 1867.68 549.085 1866.94 550.64C1866.21 552.195 1865.61 553.368 1865.14 554.16L1864.74 553.412C1865.15 552.649 1865.68 551.535 1866.33 550.068C1867 548.601 1867.66 546.929 1868.31 545.052C1868.01 544.759 1867.87 544.407 1867.87 543.996C1867.87 543.116 1868.12 542.397 1868.62 541.84C1869.11 541.283 1869.48 541.004 1869.72 541.004C1870.04 541.004 1870.21 541.151 1870.24 541.444C1870.3 541.708 1870.33 541.913 1870.33 542.06C1870.33 542.207 1870.24 542.5 1870.07 542.94C1869.92 543.351 1869.85 543.6 1869.85 543.688C1869.85 544.099 1870.07 544.48 1870.51 544.832C1870.98 545.155 1871.5 545.536 1872.09 545.976C1872.68 546.387 1873.19 546.9 1873.63 547.516C1874.1 548.103 1874.34 548.865 1874.34 549.804C1874.34 550.684 1874.14 551.579 1873.76 552.488C1873.41 553.397 1873.04 554.263 1872.66 555.084C1872.31 555.905 1872.14 556.624 1872.14 557.24C1872.14 557.768 1872.27 558.12 1872.53 558.296C1872.8 558.472 1873.1 558.56 1873.46 558.56C1874.16 558.56 1874.88 558.34 1875.61 557.9C1876.37 557.46 1877.11 556.903 1877.81 556.228C1878.52 555.553 1879.15 554.849 1879.7 554.116C1880.26 553.353 1880.67 552.649 1880.94 552.004L1881.51 552.444C1880.95 553.676 1880.19 554.893 1879.22 556.096C1878.25 557.269 1877.17 558.237 1875.96 559C1874.79 559.763 1873.57 560.144 1872.31 560.144ZM1883.03 560.408C1881.77 560.408 1880.88 560.012 1880.35 559.22C1879.82 558.457 1879.56 557.519 1879.56 556.404C1879.56 555.495 1879.7 554.556 1880 553.588C1880.29 552.62 1880.67 551.711 1881.14 550.86C1881.64 550.009 1882.18 549.32 1882.77 548.792C1883.38 548.264 1884 548 1884.62 548C1884.88 548 1885.19 548.073 1885.54 548.22C1885.28 548.455 1884.95 548.895 1884.57 549.54C1884.22 550.156 1883.88 550.875 1883.56 551.696C1883.24 552.488 1882.96 553.28 1882.72 554.072C1882.52 554.864 1882.42 555.539 1882.42 556.096C1882.42 556.976 1882.56 557.621 1882.86 558.032C1883.15 558.413 1883.53 558.604 1884 558.604C1884.62 558.604 1885.35 558.281 1886.2 557.636C1887.05 556.961 1887.89 556.111 1888.71 555.084C1887.89 554.409 1887.24 553.529 1886.77 552.444C1886.33 551.329 1886.11 550.2 1886.11 549.056C1886.11 548.088 1886.27 547.179 1886.6 546.328C1886.95 545.477 1887.45 544.803 1888.09 544.304C1888.74 543.776 1889.51 543.512 1890.42 543.512C1891.63 543.512 1892.43 543.835 1892.84 544.48C1893.25 545.125 1893.46 545.932 1893.46 546.9C1893.46 548.044 1893.18 549.32 1892.62 550.728C1892.07 552.107 1891.36 553.441 1890.51 554.732C1891.04 555.025 1891.6 555.172 1892.18 555.172C1892.86 555.172 1893.68 554.952 1894.65 554.512C1895.62 554.043 1896.36 553.207 1896.89 552.004L1897.42 552.444C1896.83 553.823 1896 554.805 1894.91 555.392C1893.86 555.949 1892.84 556.228 1891.88 556.228C1891.08 556.228 1890.38 556.081 1889.76 555.788C1888.77 557.108 1887.67 558.208 1886.46 559.088C1885.29 559.968 1884.15 560.408 1883.03 560.408ZM1889.5 553.94C1890.23 552.855 1890.83 551.725 1891.3 550.552C1891.8 549.349 1892.05 548.22 1892.05 547.164C1892.05 546.313 1891.92 545.697 1891.66 545.316C1891.42 544.905 1891.11 544.7 1890.73 544.7C1890.15 544.7 1889.54 545.125 1888.93 545.976C1888.31 546.827 1888 547.897 1888 549.188C1888 550.039 1888.12 550.904 1888.36 551.784C1888.62 552.635 1889 553.353 1889.5 553.94ZM1891.92 540.344C1891.71 540.227 1891.55 540.036 1891.44 539.772C1891.35 539.508 1891.3 539.317 1891.3 539.2C1891.3 538.936 1891.45 538.525 1891.74 537.968C1892.07 537.381 1892.46 536.78 1892.93 536.164C1893.4 535.519 1893.9 534.976 1894.43 534.536C1894.96 534.096 1895.44 533.876 1895.88 533.876C1896.11 533.876 1896.32 533.979 1896.5 534.184C1896.7 534.36 1896.82 534.712 1896.85 535.24C1895.79 536.149 1894.87 537.015 1894.08 537.836C1893.28 538.657 1892.57 539.493 1891.92 540.344ZM1899.72 560.32C1898.46 560.32 1897.55 559.88 1896.99 559C1896.46 558.149 1896.2 557.079 1896.2 555.788C1896.2 554.38 1896.46 552.708 1896.99 550.772C1897.52 548.836 1898.21 546.797 1899.06 544.656C1899.94 542.515 1900.89 540.432 1901.92 538.408C1902.95 536.355 1903.97 534.492 1905 532.82C1906.03 531.148 1906.96 529.813 1907.81 528.816C1908.69 527.819 1909.38 527.32 1909.88 527.32C1910.21 527.32 1910.47 527.511 1910.67 527.892C1910.88 528.244 1911.04 528.684 1911.16 529.212C1911.28 529.711 1911.33 530.165 1911.33 530.576C1911.33 531.368 1911.13 532.409 1910.72 533.7C1910.34 534.961 1909.78 536.384 1909.05 537.968C1908.34 539.523 1907.49 541.107 1906.49 542.72C1905.53 544.304 1904.46 545.829 1903.28 547.296C1902.14 548.763 1900.92 550.024 1899.63 551.08C1899.45 551.872 1899.31 552.649 1899.19 553.412C1899.1 554.145 1899.06 554.849 1899.06 555.524C1899.06 557.783 1899.7 558.912 1900.99 558.912C1901.79 558.912 1902.56 558.56 1903.33 557.856C1904.12 557.152 1904.85 556.272 1905.53 555.216C1906.23 554.131 1906.83 553.016 1907.33 551.872L1907.99 552.224C1906.82 554.717 1905.54 556.697 1904.16 558.164C1902.78 559.601 1901.3 560.32 1899.72 560.32ZM1900.03 549.584C1901.05 548.557 1902.05 547.384 1903.02 546.064C1903.99 544.715 1904.88 543.321 1905.7 541.884C1906.55 540.447 1907.3 539.053 1907.95 537.704C1908.59 536.355 1909.09 535.152 1909.44 534.096C1909.79 533.011 1909.97 532.175 1909.97 531.588C1909.97 531.295 1909.93 531.104 1909.84 531.016C1909.78 530.928 1909.72 530.884 1909.66 530.884C1909.43 530.884 1909.02 531.265 1908.43 532.028C1907.87 532.761 1907.21 533.759 1906.45 535.02C1905.69 536.281 1904.91 537.719 1904.12 539.332C1903.33 540.945 1902.56 542.632 1901.83 544.392C1901.13 546.152 1900.53 547.883 1900.03 549.584ZM1911.22 560.936C1909.43 560.936 1908.08 560.437 1907.17 559.44C1906.29 558.472 1905.85 557.269 1905.85 555.832C1905.85 554.512 1906.17 553.119 1906.82 551.652C1907.49 550.185 1908.37 548.807 1909.46 547.516C1910.57 546.225 1911.79 545.184 1913.11 544.392C1914.43 543.571 1915.73 543.16 1917.02 543.16C1917.7 543.16 1918.32 543.336 1918.87 543.688C1919.46 544.04 1919.75 544.759 1919.75 545.844C1919.75 546.959 1919.42 548.015 1918.74 549.012C1918.1 549.98 1917.23 550.845 1916.14 551.608C1915.09 552.371 1913.92 553.001 1912.62 553.5C1911.36 553.969 1910.1 554.263 1908.84 554.38C1908.78 554.673 1908.74 554.952 1908.71 555.216C1908.68 555.48 1908.66 555.729 1908.66 555.964C1908.66 556.873 1908.9 557.724 1909.37 558.516C1909.87 559.279 1910.79 559.66 1912.14 559.66C1913.4 559.66 1914.65 559.308 1915.88 558.604C1917.11 557.871 1918.26 556.917 1919.31 555.744C1920.37 554.571 1921.26 553.28 1922 551.872L1922.52 552.268C1921.73 554.028 1920.72 555.553 1919.49 556.844C1918.29 558.135 1916.97 559.132 1915.53 559.836C1914.12 560.569 1912.68 560.936 1911.22 560.936ZM1909.06 553.544C1909.85 553.28 1910.75 552.899 1911.74 552.4C1912.74 551.872 1913.7 551.256 1914.6 550.552C1915.54 549.848 1916.31 549.071 1916.89 548.22C1917.51 547.369 1917.82 546.475 1917.82 545.536C1917.82 545.213 1917.76 544.964 1917.64 544.788C1917.52 544.612 1917.27 544.524 1916.89 544.524C1916.19 544.524 1915.44 544.803 1914.65 545.36C1913.86 545.888 1913.09 546.592 1912.36 547.472C1911.63 548.352 1910.97 549.32 1910.38 550.376C1909.79 551.432 1909.35 552.488 1909.06 553.544Z" fill="black"/>
<path id="D&#196;&#133;br&#195;&#179;wka" d="M12.172 44.828C11.2627 44.828 10.3973 44.696 9.576 44.432C8.75467 44.1973 8.05067 43.6693 7.464 42.848C7.816 41.176 8.256 39.3427 8.784 37.348C9.34133 35.324 9.928 33.2853 10.544 31.232C11.16 29.1787 11.7613 27.228 12.348 25.38C12.964 23.5027 13.5067 21.86 13.976 20.452C14.4453 19.044 14.812 18.0027 15.076 17.328C15.1933 17.0053 15.4133 16.5213 15.736 15.876C16.0587 15.2013 16.4547 14.5853 16.924 14.028C17.3933 13.4707 17.9213 13.192 18.508 13.192C18.9187 13.192 19.3293 13.3387 19.74 13.632C18.8307 15.744 17.9067 18.076 16.968 20.628C16.0587 23.18 15.1787 25.82 14.328 28.548C13.4773 31.2467 12.7 33.8867 11.996 36.468C11.292 39.0493 10.7053 41.396 10.236 43.508C10.94 43.6253 11.5707 43.684 12.128 43.684C14.0053 43.684 15.8093 43.244 17.54 42.364C19.3 41.5133 20.928 40.34 22.424 38.844C23.9493 37.3187 25.284 35.588 26.428 33.652C27.572 31.6867 28.452 29.6187 29.068 27.448C29.7133 25.248 30.036 23.0627 30.036 20.892C30.036 17.3133 29.2 14.688 27.528 13.016C25.856 11.344 23.6853 10.508 21.016 10.508C19.1093 10.508 17.3933 10.8893 15.868 11.652C14.3427 12.4147 13.14 13.4413 12.26 14.732C11.38 16.0227 10.94 17.4747 10.94 19.088C10.94 19.7333 11.0133 20.276 11.16 20.716C10.192 20.716 9.50267 20.4813 9.092 20.012C8.71067 19.5133 8.52 18.9267 8.52 18.252C8.52 17.2253 8.872 16.1987 9.576 15.172C10.3093 14.116 11.3067 13.148 12.568 12.268C13.8587 11.388 15.34 10.684 17.012 10.156C18.684 9.59867 20.4587 9.32 22.336 9.32C24.976 9.32 27.088 9.86267 28.672 10.948C30.2853 12.004 31.4587 13.4413 32.192 15.26C32.9253 17.0787 33.292 19.1173 33.292 21.376C33.292 23.928 32.896 26.3773 32.104 28.724C31.312 31.0413 30.212 33.1827 28.804 35.148C27.4253 37.084 25.8413 38.7853 24.052 40.252C22.2627 41.6893 20.3413 42.804 18.288 43.596C16.264 44.4173 14.2253 44.828 12.172 44.828ZM35.8581 43.068C34.9488 43.068 34.1861 42.76 33.5701 42.144C32.9248 41.5573 32.6021 40.648 32.6021 39.416C32.6021 38.36 32.8368 37.2307 33.3061 36.028C33.7754 34.796 34.4208 33.5933 35.2421 32.42C36.0634 31.2173 36.9874 30.132 38.0141 29.164C39.0701 28.1667 40.1701 27.3747 41.3141 26.788C42.4874 26.2013 43.6461 25.908 44.7901 25.908C45.9341 25.908 46.8874 26.216 47.6501 26.832C48.4128 27.4187 48.7941 28.2107 48.7941 29.208C48.7941 29.9413 48.5888 30.44 48.1781 30.704C47.7968 30.968 47.2834 31.1 46.6381 31.1C46.7848 30.572 46.8581 30.0587 46.8581 29.56C46.8581 28.8853 46.6968 28.3133 46.3741 27.844C46.0514 27.3453 45.4941 27.096 44.7021 27.096C43.8808 27.096 43.0448 27.3893 42.1941 27.976C41.3434 28.5333 40.5221 29.296 39.7301 30.264C38.9381 31.2027 38.2341 32.2293 37.6181 33.344C37.0021 34.4587 36.5181 35.5587 36.1661 36.644C35.8141 37.7293 35.6381 38.6973 35.6381 39.548C35.6381 40.692 36.0341 41.264 36.8261 41.264C37.5008 41.264 38.2341 40.956 39.0261 40.34C39.8181 39.6947 40.6248 38.888 41.4461 37.92C42.2968 36.9227 43.1034 35.896 43.8661 34.84C44.6288 33.784 45.3034 32.816 45.8901 31.936C46.0074 31.76 46.0808 31.672 46.1101 31.672C46.3741 31.7013 46.7261 31.8187 47.1661 32.024C47.6061 32.2 47.8261 32.4493 47.8261 32.772C47.8261 33.036 47.6941 33.4027 47.4301 33.872C47.1661 34.312 46.8728 34.8253 46.5501 35.412C46.2274 35.9987 45.9341 36.6 45.6701 37.216C45.4061 37.8027 45.2741 38.36 45.2741 38.888C45.2741 39.328 45.3914 39.768 45.6261 40.208C45.8608 40.6187 46.2421 40.824 46.7701 40.824C47.5621 40.824 48.6034 40.252 49.8941 39.108C51.1848 37.9347 52.4901 36.1893 53.8101 33.872L54.2501 34.312C53.6341 35.896 52.8421 37.2893 51.8741 38.492C50.9061 39.6947 49.8648 40.6333 48.7501 41.308C47.6648 41.9827 46.5941 42.32 45.5381 42.32C44.4528 42.32 43.6461 41.9973 43.1181 41.352C42.6194 40.7067 42.3701 40.0027 42.3701 39.24C42.3701 38.8587 42.4141 38.4333 42.5021 37.964C41.2408 39.6653 40.0821 40.9413 39.0261 41.792C37.9994 42.6427 36.9434 43.068 35.8581 43.068ZM49.1021 47.424C48.1928 47.424 47.4594 47.1453 46.9021 46.588C46.3448 46.0307 46.0661 45.312 46.0661 44.432C46.0661 43.464 46.3741 42.672 46.9901 42.056C47.6354 41.4693 48.3834 41.1173 49.2341 41C48.7648 41.3227 48.3834 41.6893 48.0901 42.1C47.7968 42.5107 47.6501 43.0093 47.6501 43.596C47.6501 44.0947 47.8261 44.5347 48.1781 44.916C48.5301 45.3267 49.0728 45.532 49.8061 45.532C50.5981 45.532 51.3314 45.2827 52.0061 44.784C51.9768 45.6053 51.6981 46.2507 51.1701 46.72C50.6421 47.1893 49.9528 47.424 49.1021 47.424ZM57.0022 44.212C55.4768 44.212 54.3328 43.7133 53.5702 42.716C52.8368 41.7187 52.4702 40.3693 52.4702 38.668C52.4702 37.2013 52.7195 35.4707 53.2182 33.476C53.7168 31.4813 54.3768 29.3987 55.1982 27.228C56.0195 25.028 56.9288 22.8867 57.9262 20.804C58.9528 18.7213 59.9795 16.844 61.0062 15.172C62.0328 13.4707 63.0008 12.1213 63.9102 11.124C64.8195 10.0973 65.5675 9.584 66.1542 9.584C66.6528 9.584 67.0048 9.892 67.2102 10.508C67.4448 11.124 67.5622 11.74 67.5622 12.356C67.5622 13.1773 67.3862 14.1747 67.0342 15.348C66.6822 16.5213 66.1835 17.7827 65.5382 19.132C64.8928 20.452 64.1448 21.7573 63.2942 23.048C62.4435 24.3387 61.5195 25.5267 60.5222 26.612C59.5542 27.668 58.5568 28.504 57.5302 29.12C57.3542 29.4427 57.0902 30.1173 56.7382 31.144C56.4155 32.1413 56.1075 33.3 55.8142 34.62C55.5502 35.9107 55.4182 37.172 55.4182 38.404C55.4182 39.6067 55.5942 40.5893 55.9462 41.352C56.3275 42.144 56.9582 42.54 57.8382 42.54C58.6888 42.54 59.5688 42.188 60.4782 41.484C61.3875 40.8093 62.1208 39.9293 62.6782 38.844C61.5928 38.2867 60.7862 37.48 60.2582 36.424C59.7302 35.3387 59.4662 34.2533 59.4662 33.168C59.4662 31.76 59.8328 30.6307 60.5662 29.78C61.2995 28.9293 62.1648 28.504 63.1622 28.504C64.0128 28.504 64.6875 28.856 65.1862 29.56C65.6848 30.2347 65.9342 31.232 65.9342 32.552C65.9342 34.5173 65.4502 36.468 64.4822 38.404C64.6288 38.4333 64.7755 38.4627 64.9222 38.492C65.0982 38.492 65.2595 38.492 65.4062 38.492C66.5795 38.492 67.6208 38.096 68.5302 37.304C69.4395 36.512 70.2315 35.5147 70.9062 34.312C71.5808 33.08 72.1528 31.8187 72.6222 30.528C73.1208 29.208 73.5462 28.0493 73.8982 27.052C73.7808 26.9053 73.6782 26.7587 73.5902 26.612C73.5022 26.436 73.4582 26.2013 73.4582 25.908C73.4582 25.1453 73.6928 24.4707 74.1622 23.884C74.6608 23.2973 75.0715 23.004 75.3942 23.004C75.6288 23.004 75.7755 23.1507 75.8342 23.444C75.8928 23.7373 75.9222 23.928 75.9222 24.016C75.9222 24.28 75.8342 24.588 75.6582 24.94C75.5115 25.2627 75.4382 25.5413 75.4382 25.776C75.4382 26.128 75.6582 26.4653 76.0982 26.788C76.5675 27.1107 77.0955 27.492 77.6822 27.932C78.2688 28.3427 78.7822 28.8707 79.2222 29.516C79.6915 30.132 79.9262 30.9093 79.9262 31.848C79.9262 32.728 79.7355 33.6227 79.3542 34.532C79.0022 35.412 78.6355 36.2627 78.2542 37.084C77.9022 37.9053 77.7262 38.6387 77.7262 39.284C77.7262 39.7827 77.8582 40.12 78.1222 40.296C78.3862 40.472 78.6942 40.56 79.0462 40.56C79.7502 40.56 80.4688 40.34 81.2022 39.9C81.9648 39.46 82.6982 38.9027 83.4022 38.228C84.1062 37.5533 84.7368 36.8493 85.2942 36.116C85.8515 35.3533 86.2622 34.6493 86.5262 34.004L87.0982 34.444C86.5408 35.676 85.7782 36.8933 84.8102 38.096C83.8422 39.2693 82.7568 40.2373 81.5542 41C80.3808 41.7627 79.1635 42.144 77.9022 42.144C76.9048 42.144 76.1128 41.88 75.5262 41.352C74.9688 40.8533 74.6902 40.1493 74.6902 39.24C74.6902 38.3893 74.8955 37.4947 75.3062 36.556C75.7168 35.588 76.1128 34.62 76.4942 33.652C76.9048 32.684 77.1102 31.804 77.1102 31.012C77.1102 30.1027 76.8315 29.428 76.2742 28.988C75.7462 28.5187 75.2035 28.0933 74.6462 27.712C74.2942 28.8267 73.8688 30.0587 73.3702 31.408C72.9008 32.7573 72.2995 34.048 71.5662 35.28C70.8622 36.4827 69.9968 37.48 68.9702 38.272C67.9435 39.064 66.7115 39.46 65.2742 39.46C64.8635 39.46 64.4382 39.416 63.9982 39.328C63.2062 40.6773 62.2235 41.8213 61.0502 42.76C59.9062 43.728 58.5568 44.212 57.0022 44.212ZM58.0142 27.404C58.8355 26.7587 59.6275 25.9373 60.3902 24.94C61.1822 23.9427 61.9155 22.8867 62.5902 21.772C63.2648 20.628 63.8662 19.5133 64.3942 18.428C64.9222 17.3427 65.3328 16.36 65.6262 15.48C65.9195 14.6 66.0662 13.94 66.0662 13.5C66.0662 13.2653 66.0075 13.148 65.8902 13.148C65.6555 13.148 65.2008 13.5733 64.5262 14.424C63.8808 15.2453 63.1475 16.36 62.3262 17.768C61.5342 19.1467 60.7422 20.6867 59.9502 22.388C59.1582 24.06 58.5128 25.732 58.0142 27.404ZM63.1182 37.964C63.4408 37.2893 63.6902 36.5853 63.8662 35.852C64.0422 35.0893 64.1302 34.312 64.1302 33.52C64.1302 32.4933 63.9835 31.6867 63.6902 31.1C63.4262 30.5133 63.0888 30.22 62.6782 30.22C62.2382 30.22 61.8422 30.528 61.4902 31.144C61.1675 31.7307 61.0062 32.4787 61.0062 33.388C61.0062 34.18 61.1675 35.016 61.4902 35.896C61.8128 36.776 62.3555 37.4653 63.1182 37.964ZM88.6024 42.408C87.3411 42.408 86.4464 42.012 85.9184 41.22C85.3904 40.4573 85.1264 39.5187 85.1264 38.404C85.1264 37.4947 85.2731 36.556 85.5664 35.588C85.8597 34.62 86.2411 33.7107 86.7104 32.86C87.2091 32.0093 87.7517 31.32 88.3384 30.792C88.9544 30.264 89.5704 30 90.1864 30C90.4504 30 90.7584 30.0733 91.1104 30.22C90.8464 30.4547 90.5237 30.8947 90.1424 31.54C89.7904 32.156 89.4531 32.8747 89.1304 33.696C88.8077 34.488 88.5291 35.28 88.2944 36.072C88.0891 36.864 87.9864 37.5387 87.9864 38.096C87.9864 38.976 88.1331 39.6213 88.4264 40.032C88.7197 40.4133 89.1011 40.604 89.5704 40.604C90.1864 40.604 90.9197 40.2813 91.7704 39.636C92.6211 38.9613 93.4571 38.1107 94.2784 37.084C93.4571 36.4093 92.8117 35.5293 92.3424 34.444C91.9024 33.3293 91.6824 32.2 91.6824 31.056C91.6824 30.088 91.8437 29.1787 92.1664 28.328C92.5184 27.4773 93.0171 26.8027 93.6624 26.304C94.3077 25.776 95.0851 25.512 95.9944 25.512C97.1971 25.512 98.0037 25.8347 98.4144 26.48C98.8251 27.1253 99.0304 27.932 99.0304 28.9C99.0304 30.044 98.7517 31.32 98.1944 32.728C97.6371 34.1067 96.9331 35.4413 96.0824 36.732C96.6104 37.0253 97.1677 37.172 97.7544 37.172C98.4291 37.172 99.2504 36.952 100.218 36.512C101.186 36.0427 101.934 35.2067 102.462 34.004L102.99 34.444C102.404 35.8227 101.568 36.8053 100.482 37.392C99.4264 37.9493 98.4144 38.228 97.4464 38.228C96.6544 38.228 95.9504 38.0813 95.3344 37.788C94.3371 39.108 93.2371 40.208 92.0344 41.088C90.8611 41.968 89.7171 42.408 88.6024 42.408ZM95.0704 35.94C95.8037 34.8547 96.4051 33.7253 96.8744 32.552C97.3731 31.3493 97.6224 30.22 97.6224 29.164C97.6224 28.3133 97.4904 27.6973 97.2264 27.316C96.9917 26.9053 96.6837 26.7 96.3024 26.7C95.7157 26.7 95.1144 27.1253 94.4984 27.976C93.8824 28.8267 93.5744 29.8973 93.5744 31.188C93.5744 32.0387 93.6917 32.904 93.9264 33.784C94.1904 34.6347 94.5717 35.3533 95.0704 35.94ZM97.4904 22.344C97.2851 22.2267 97.1237 22.036 97.0064 21.772C96.9184 21.508 96.8744 21.3173 96.8744 21.2C96.8744 20.936 97.0211 20.5253 97.3144 19.968C97.6371 19.3813 98.0331 18.78 98.5024 18.164C98.9717 17.5187 99.4704 16.976 99.9984 16.536C100.526 16.096 101.01 15.876 101.45 15.876C101.685 15.876 101.89 15.9787 102.066 16.184C102.272 16.36 102.389 16.712 102.418 17.24C101.362 18.1493 100.438 19.0147 99.6464 19.836C98.8544 20.6573 98.1357 21.4933 97.4904 22.344ZM114.045 42.716C113.135 42.716 112.505 42.2907 112.153 41.44C111.83 40.6187 111.669 39.6213 111.669 38.448C111.669 37.8613 111.698 37.2307 111.757 36.556C111.815 35.852 111.889 35.1627 111.977 34.488C111.331 35.7787 110.627 37.0253 109.865 38.228C109.131 39.4307 108.354 40.4133 107.533 41.176C106.711 41.9387 105.846 42.32 104.937 42.32C103.969 42.32 103.177 41.88 102.561 41C101.945 40.12 101.637 39.0787 101.637 37.876C101.637 37.0253 101.769 36.0427 102.033 34.928C102.326 33.8133 102.678 32.7133 103.089 31.628C103.499 30.5427 103.925 29.648 104.365 28.944C104.805 28.24 105.186 27.888 105.509 27.888C105.655 27.888 105.963 27.976 106.433 28.152C106.902 28.2987 107.137 28.504 107.137 28.768C106.814 29.2667 106.418 30.0293 105.949 31.056C105.479 32.0827 105.069 33.1973 104.717 34.4C104.365 35.5733 104.189 36.644 104.189 37.612C104.189 37.8467 104.218 38.2133 104.277 38.712C104.335 39.1813 104.467 39.6067 104.673 39.988C104.907 40.3693 105.259 40.56 105.729 40.56C106.403 40.56 107.122 40.1347 107.885 39.284C108.647 38.4333 109.41 37.3627 110.173 36.072C110.935 34.7813 111.654 33.476 112.329 32.156C112.563 30.9533 112.754 30.0733 112.901 29.516C113.077 28.9587 113.253 28.6067 113.429 28.46C113.605 28.284 113.825 28.196 114.089 28.196C114.47 28.196 114.778 28.284 115.013 28.46C115.247 28.6067 115.365 28.8413 115.365 29.164C115.365 29.252 115.335 29.4133 115.277 29.648C115.071 30.352 114.866 31.2467 114.661 32.332C114.485 33.388 114.338 34.488 114.221 35.632C114.103 36.776 114.045 37.8467 114.045 38.844C114.045 40.2813 114.367 41 115.013 41C115.453 41 115.966 40.736 116.553 40.208C117.139 39.6507 117.741 38.932 118.357 38.052C119.002 37.1427 119.618 36.16 120.205 35.104C120.821 34.048 121.363 33.0067 121.833 31.98C121.833 30.4547 121.935 29.296 122.141 28.504C122.375 27.6827 122.654 27.1253 122.977 26.832C123.329 26.5387 123.681 26.392 124.033 26.392C124.59 26.392 124.986 26.5973 125.221 27.008C125.485 27.3893 125.617 27.7413 125.617 28.064C125.617 28.2693 125.573 28.4893 125.485 28.724C125.397 28.9293 125.279 29.164 125.133 29.428C124.898 29.868 124.663 30.44 124.429 31.144C124.194 31.8187 124.077 32.7573 124.077 33.96C124.077 34.4293 124.121 34.928 124.209 35.456C124.297 35.984 124.487 36.424 124.781 36.776C125.074 37.128 125.529 37.304 126.145 37.304C126.761 37.304 127.347 37.0693 127.905 36.6C128.491 36.1013 129.063 35.2507 129.621 34.048L130.193 34.488C129.547 35.9547 128.829 36.9373 128.037 37.436C127.274 37.9347 126.541 38.184 125.837 38.184C123.959 38.184 122.727 36.952 122.141 34.488C121.407 35.8373 120.586 37.1427 119.677 38.404C118.767 39.6653 117.829 40.692 116.861 41.484C115.893 42.3053 114.954 42.716 114.045 42.716ZM141.861 42.672C141.04 42.672 140.336 42.3933 139.749 41.836C139.162 41.2787 138.693 40.5747 138.341 39.724C138.018 38.8733 137.769 38.008 137.593 37.128C137.446 36.2187 137.373 35.4267 137.373 34.752C137.696 34.752 138.165 34.6787 138.781 34.532C139.397 34.356 140.028 34.1067 140.673 33.784C141.318 33.432 141.861 32.992 142.301 32.464C142.77 31.9067 143.005 31.2613 143.005 30.528C143.005 29.912 142.785 29.428 142.345 29.076C141.905 28.724 141.392 28.548 140.805 28.548C139.896 28.548 139.045 28.8707 138.253 29.516C137.461 30.132 136.742 30.9533 136.097 31.98C135.481 32.9773 134.924 34.048 134.425 35.192C133.926 36.336 133.501 37.4213 133.149 38.448C132.797 39.4747 132.504 40.3253 132.269 41C132.093 41.528 131.844 41.88 131.521 42.056C131.198 42.2613 130.861 42.364 130.509 42.364C130.01 42.364 129.644 42.1587 129.409 41.748C129.204 41.3373 129.072 40.824 129.013 40.208C128.984 39.5627 128.969 38.9027 128.969 38.228C128.969 36.7027 129.218 34.9427 129.717 32.948C130.216 30.9533 130.876 28.8853 131.697 26.744C132.548 24.5733 133.472 22.476 134.469 20.452C135.466 18.428 136.464 16.5947 137.461 14.952C138.458 13.3093 139.382 12.004 140.233 11.036C141.084 10.068 141.773 9.584 142.301 9.584C142.712 9.584 143.034 9.86266 143.269 10.42C143.533 10.9773 143.665 11.652 143.665 12.444C143.665 13.4413 143.445 14.5707 143.005 15.832C142.565 17.064 141.934 18.3107 141.113 19.572C140.321 20.8333 139.368 22.0213 138.253 23.136C137.168 24.2507 135.98 25.204 134.689 25.996C133.721 28.372 132.988 30.6893 132.489 32.948C132.02 35.1773 131.785 37.0547 131.785 38.58C132.254 37.4067 132.812 36.116 133.457 34.708C134.132 33.3 134.894 31.9507 135.745 30.66C136.596 29.3693 137.52 28.3133 138.517 27.492C139.514 26.6707 140.556 26.26 141.641 26.26C142.726 26.26 143.65 26.6413 144.413 27.404C145.176 28.1667 145.557 29.0907 145.557 30.176C145.557 31.1147 145.308 31.9213 144.809 32.596C144.34 33.2413 143.753 33.7693 143.049 34.18C142.374 34.5613 141.685 34.8547 140.981 35.06C140.306 35.236 139.749 35.324 139.309 35.324C139.338 35.5587 139.426 35.984 139.573 36.6C139.72 37.216 139.925 37.8613 140.189 38.536C140.482 39.2107 140.834 39.7973 141.245 40.296C141.656 40.7653 142.154 41 142.741 41C144.002 41 145.176 40.3107 146.261 38.932C147.346 37.524 148.344 35.8227 149.253 33.828L149.693 34.268C149.282 35.7053 148.652 37.0693 147.801 38.36C146.95 39.6213 145.997 40.648 144.941 41.44C143.914 42.2613 142.888 42.672 141.861 42.672ZM135.437 24.236C136.786 23.1507 137.96 21.9187 138.957 20.54C139.984 19.1613 140.776 17.8413 141.333 16.58C141.89 15.2893 142.169 14.2773 142.169 13.544C142.169 13.28 142.125 13.148 142.037 13.148C141.744 13.148 141.23 13.6613 140.497 14.688C139.793 15.7147 138.986 17.0787 138.077 18.78C137.168 20.452 136.288 22.2707 135.437 24.236ZM150.542 43.068C149.632 43.068 148.87 42.76 148.254 42.144C147.608 41.5573 147.286 40.648 147.286 39.416C147.286 38.36 147.52 37.2307 147.99 36.028C148.459 34.796 149.104 33.5933 149.926 32.42C150.747 31.2173 151.671 30.132 152.698 29.164C153.754 28.1667 154.854 27.3747 155.998 26.788C157.171 26.2013 158.33 25.908 159.474 25.908C160.618 25.908 161.571 26.216 162.334 26.832C163.096 27.4187 163.478 28.2107 163.478 29.208C163.478 29.9413 163.272 30.44 162.862 30.704C162.48 30.968 161.967 31.1 161.322 31.1C161.468 30.572 161.542 30.0587 161.542 29.56C161.542 28.8853 161.38 28.3133 161.058 27.844C160.735 27.3453 160.178 27.096 159.386 27.096C158.564 27.096 157.728 27.3893 156.878 27.976C156.027 28.5333 155.206 29.296 154.414 30.264C153.622 31.2027 152.918 32.2293 152.302 33.344C151.686 34.4587 151.202 35.5587 150.85 36.644C150.498 37.7293 150.322 38.6973 150.322 39.548C150.322 40.692 150.718 41.264 151.51 41.264C152.184 41.264 152.918 40.956 153.71 40.34C154.502 39.6947 155.308 38.888 156.13 37.92C156.98 36.9227 157.787 35.896 158.55 34.84C159.312 33.784 159.987 32.816 160.574 31.936C160.691 31.76 160.764 31.672 160.794 31.672C161.058 31.7013 161.41 31.8187 161.85 32.024C162.29 32.2 162.51 32.4493 162.51 32.772C162.51 33.036 162.378 33.4027 162.114 33.872C161.85 34.312 161.556 34.8253 161.234 35.412C160.911 35.9987 160.618 36.6 160.354 37.216C160.09 37.8027 159.958 38.36 159.958 38.888C159.958 39.328 160.075 39.768 160.31 40.208C160.544 40.6187 160.926 40.824 161.454 40.824C162.246 40.824 163.287 40.252 164.578 39.108C165.868 37.9347 167.174 36.1893 168.494 33.872L168.934 34.312C168.318 35.896 167.526 37.2893 166.558 38.492C165.59 39.6947 164.548 40.6333 163.434 41.308C162.348 41.9827 161.278 42.32 160.222 42.32C159.136 42.32 158.33 41.9973 157.802 41.352C157.303 40.7067 157.054 40.0027 157.054 39.24C157.054 38.8587 157.098 38.4333 157.186 37.964C155.924 39.6653 154.766 40.9413 153.71 41.792C152.683 42.6427 151.627 43.068 150.542 43.068Z" fill="black"/>
<path id="Harasiuki" d="M677.42 255.828C677.596 254.801 677.801 253.745 678.036 252.66C678.271 251.604 678.564 250.416 678.916 249.096C679.297 247.747 679.752 246.192 680.28 244.432C680.808 242.672 681.468 240.589 682.26 238.184C681.791 238.213 681.307 238.257 680.808 238.316C680.339 238.375 679.855 238.433 679.356 238.492C679.385 237.759 679.723 237.187 680.368 236.776C681.043 236.336 681.923 236.013 683.008 235.808C683.507 234.253 684.064 232.567 684.68 230.748C685.325 228.9 686.015 226.905 686.748 224.764C686.865 224.441 686.997 224.045 687.144 223.576C687.291 223.077 687.364 222.608 687.364 222.168C687.364 221.933 687.32 221.772 687.232 221.684C687.173 221.596 687.012 221.552 686.748 221.552C686.044 221.552 685.355 221.845 684.68 222.432C684.035 222.989 683.448 223.708 682.92 224.588C682.421 225.468 682.025 226.377 681.732 227.316C681.439 228.255 681.292 229.091 681.292 229.824C681.292 230.381 681.365 230.88 681.512 231.32C680.544 231.32 679.855 231.085 679.444 230.616C679.063 230.117 678.872 229.516 678.872 228.812C678.872 227.815 679.165 226.817 679.752 225.82C680.339 224.823 681.087 223.913 681.996 223.092C682.935 222.241 683.903 221.567 684.9 221.068C685.927 220.569 686.851 220.32 687.672 220.32C688.464 220.32 688.992 220.54 689.256 220.98C689.549 221.42 689.696 221.904 689.696 222.432C689.696 222.755 689.652 223.077 689.564 223.4C689.505 223.723 689.432 224.031 689.344 224.324L685.912 235.5C686.323 235.471 686.733 235.456 687.144 235.456C687.584 235.427 688.024 235.412 688.464 235.412C689.843 235.412 691.148 235.456 692.38 235.544C693.641 235.603 694.829 235.691 695.944 235.808C696.531 233.931 697.103 232.083 697.66 230.264C698.247 228.445 698.775 226.861 699.244 225.512C699.743 224.133 700.124 223.165 700.388 222.608C700.505 222.373 700.667 222.08 700.872 221.728C701.077 221.376 701.341 221.053 701.664 220.76C702.016 220.467 702.397 220.32 702.808 220.32C702.397 221.405 701.928 222.799 701.4 224.5C700.872 226.172 700.329 228.005 699.772 230C699.244 231.995 698.716 233.989 698.188 235.984C698.775 236.013 699.332 236.057 699.86 236.116C700.417 236.145 700.96 236.16 701.488 236.16C700.843 236.835 700.212 237.245 699.596 237.392C698.98 237.509 698.379 237.568 697.792 237.568C697.528 238.653 697.279 239.709 697.044 240.736C696.809 241.733 696.604 242.687 696.428 243.596C695.9 246.089 695.519 248.216 695.284 249.976C695.079 251.736 694.976 253.159 694.976 254.244C694.976 254.596 694.976 254.889 694.976 255.124C695.005 255.388 695.035 255.623 695.064 255.828C693.92 255.711 693.128 255.388 692.688 254.86C692.248 254.332 692.028 253.511 692.028 252.396C692.028 251.633 692.116 250.68 692.292 249.536C692.468 248.363 692.732 247.101 693.084 245.752C693.319 244.872 693.641 243.713 694.052 242.276C694.463 240.809 694.917 239.255 695.416 237.612C693.627 237.612 692.131 237.627 690.928 237.656C689.725 237.685 688.684 237.715 687.804 237.744C686.924 237.773 686.044 237.832 685.164 237.92C684.636 239.621 684.108 241.308 683.58 242.98C683.052 244.652 682.568 246.192 682.128 247.6C681.688 248.979 681.321 250.152 681.028 251.12C680.735 252.088 680.544 252.719 680.456 253.012C680.163 254.009 679.693 254.728 679.048 255.168C678.432 255.608 677.889 255.828 677.42 255.828ZM703.194 254.068C702.285 254.068 701.522 253.76 700.906 253.144C700.261 252.557 699.938 251.648 699.938 250.416C699.938 249.36 700.173 248.231 700.642 247.028C701.111 245.796 701.757 244.593 702.578 243.42C703.399 242.217 704.323 241.132 705.35 240.164C706.406 239.167 707.506 238.375 708.65 237.788C709.823 237.201 710.982 236.908 712.126 236.908C713.27 236.908 714.223 237.216 714.986 237.832C715.749 238.419 716.13 239.211 716.13 240.208C716.13 240.941 715.925 241.44 715.514 241.704C715.133 241.968 714.619 242.1 713.974 242.1C714.121 241.572 714.194 241.059 714.194 240.56C714.194 239.885 714.033 239.313 713.71 238.844C713.387 238.345 712.83 238.096 712.038 238.096C711.217 238.096 710.381 238.389 709.53 238.976C708.679 239.533 707.858 240.296 707.066 241.264C706.274 242.203 705.57 243.229 704.954 244.344C704.338 245.459 703.854 246.559 703.502 247.644C703.15 248.729 702.974 249.697 702.974 250.548C702.974 251.692 703.37 252.264 704.162 252.264C704.837 252.264 705.57 251.956 706.362 251.34C707.154 250.695 707.961 249.888 708.782 248.92C709.633 247.923 710.439 246.896 711.202 245.84C711.965 244.784 712.639 243.816 713.226 242.936C713.343 242.76 713.417 242.672 713.446 242.672C713.71 242.701 714.062 242.819 714.502 243.024C714.942 243.2 715.162 243.449 715.162 243.772C715.162 244.036 715.03 244.403 714.766 244.872C714.502 245.312 714.209 245.825 713.886 246.412C713.563 246.999 713.27 247.6 713.006 248.216C712.742 248.803 712.61 249.36 712.61 249.888C712.61 250.328 712.727 250.768 712.962 251.208C713.197 251.619 713.578 251.824 714.106 251.824C714.898 251.824 715.939 251.252 717.23 250.108C718.521 248.935 719.826 247.189 721.146 244.872L721.586 245.312C720.97 246.896 720.178 248.289 719.21 249.492C718.242 250.695 717.201 251.633 716.086 252.308C715.001 252.983 713.93 253.32 712.874 253.32C711.789 253.32 710.982 252.997 710.454 252.352C709.955 251.707 709.706 251.003 709.706 250.24C709.706 249.859 709.75 249.433 709.838 248.964C708.577 250.665 707.418 251.941 706.362 252.792C705.335 253.643 704.279 254.068 703.194 254.068ZM727.858 253.144C726.861 253.144 726.069 252.88 725.482 252.352C724.925 251.824 724.646 251.135 724.646 250.284C724.646 249.404 724.851 248.48 725.262 247.512C725.673 246.544 726.069 245.591 726.45 244.652C726.861 243.684 727.066 242.819 727.066 242.056C727.066 241.117 726.787 240.428 726.23 239.988C725.702 239.519 725.159 239.093 724.602 238.712C723.927 240.443 723.223 242.085 722.49 243.64C721.757 245.195 721.155 246.368 720.686 247.16L720.29 246.412C720.701 245.649 721.229 244.535 721.874 243.068C722.549 241.601 723.209 239.929 723.854 238.052C723.561 237.759 723.414 237.407 723.414 236.996C723.414 236.116 723.663 235.397 724.162 234.84C724.661 234.283 725.027 234.004 725.262 234.004C725.585 234.004 725.761 234.151 725.79 234.444C725.849 234.708 725.878 234.913 725.878 235.06C725.878 235.207 725.79 235.5 725.614 235.94C725.467 236.351 725.394 236.6 725.394 236.688C725.394 237.099 725.614 237.48 726.054 237.832C726.523 238.155 727.051 238.536 727.638 238.976C728.225 239.387 728.738 239.9 729.178 240.516C729.647 241.103 729.882 241.865 729.882 242.804C729.882 243.684 729.691 244.579 729.31 245.488C728.958 246.397 728.591 247.263 728.21 248.084C727.858 248.905 727.682 249.624 727.682 250.24C727.682 250.768 727.814 251.12 728.078 251.296C728.342 251.472 728.65 251.56 729.002 251.56C729.706 251.56 730.425 251.34 731.158 250.9C731.921 250.46 732.654 249.903 733.358 249.228C734.062 248.553 734.693 247.849 735.25 247.116C735.807 246.353 736.218 245.649 736.482 245.004L737.054 245.444C736.497 246.676 735.734 247.893 734.766 249.096C733.798 250.269 732.713 251.237 731.51 252C730.337 252.763 729.119 253.144 727.858 253.144ZM737.655 254.068C736.746 254.068 735.983 253.76 735.367 253.144C734.722 252.557 734.399 251.648 734.399 250.416C734.399 249.36 734.634 248.231 735.103 247.028C735.572 245.796 736.218 244.593 737.039 243.42C737.86 242.217 738.784 241.132 739.811 240.164C740.867 239.167 741.967 238.375 743.111 237.788C744.284 237.201 745.443 236.908 746.587 236.908C747.731 236.908 748.684 237.216 749.447 237.832C750.21 238.419 750.591 239.211 750.591 240.208C750.591 240.941 750.386 241.44 749.975 241.704C749.594 241.968 749.08 242.1 748.435 242.1C748.582 241.572 748.655 241.059 748.655 240.56C748.655 239.885 748.494 239.313 748.171 238.844C747.848 238.345 747.291 238.096 746.499 238.096C745.678 238.096 744.842 238.389 743.991 238.976C743.14 239.533 742.319 240.296 741.527 241.264C740.735 242.203 740.031 243.229 739.415 244.344C738.799 245.459 738.315 246.559 737.963 247.644C737.611 248.729 737.435 249.697 737.435 250.548C737.435 251.692 737.831 252.264 738.623 252.264C739.298 252.264 740.031 251.956 740.823 251.34C741.615 250.695 742.422 249.888 743.243 248.92C744.094 247.923 744.9 246.896 745.663 245.84C746.426 244.784 747.1 243.816 747.687 242.936C747.804 242.76 747.878 242.672 747.907 242.672C748.171 242.701 748.523 242.819 748.963 243.024C749.403 243.2 749.623 243.449 749.623 243.772C749.623 244.036 749.491 244.403 749.227 244.872C748.963 245.312 748.67 245.825 748.347 246.412C748.024 246.999 747.731 247.6 747.467 248.216C747.203 248.803 747.071 249.36 747.071 249.888C747.071 250.328 747.188 250.768 747.423 251.208C747.658 251.619 748.039 251.824 748.567 251.824C749.359 251.824 750.4 251.252 751.691 250.108C752.982 248.935 754.287 247.189 755.607 244.872L756.047 245.312C755.431 246.896 754.639 248.289 753.671 249.492C752.703 250.695 751.662 251.633 750.547 252.308C749.462 252.983 748.391 253.32 747.335 253.32C746.25 253.32 745.443 252.997 744.915 252.352C744.416 251.707 744.167 251.003 744.167 250.24C744.167 249.859 744.211 249.433 744.299 248.964C743.038 250.665 741.879 251.941 740.823 252.792C739.796 253.643 738.74 254.068 737.655 254.068ZM759.327 254.244C757.948 254.244 756.848 253.936 756.027 253.32C755.235 252.733 754.678 252 754.355 251.12C754.003 250.24 753.827 249.36 753.827 248.48C753.827 247.6 753.944 246.925 754.179 246.456C754.414 245.987 754.692 245.635 755.015 245.4C755.367 245.165 755.69 244.989 755.983 244.872C756.306 244.755 756.526 244.637 756.643 244.52C757.523 243.552 758.33 242.54 759.063 241.484C759.796 240.428 760.442 239.313 760.999 238.14V237.612C760.999 236.527 761.175 235.764 761.527 235.324C761.908 234.855 762.304 234.62 762.715 234.62C763.184 234.62 763.419 234.811 763.419 235.192C763.419 235.339 763.375 235.573 763.287 235.896C763.199 236.219 763.155 236.629 763.155 237.128C763.155 238.096 763.346 239.152 763.727 240.296C764.108 241.411 764.49 242.599 764.871 243.86C765.252 245.092 765.443 246.383 765.443 247.732C765.443 248.495 765.355 249.213 765.179 249.888C766.206 249.712 767.174 249.257 768.083 248.524C768.992 247.761 769.872 246.559 770.723 244.916L771.119 245.356C770.562 246.969 769.726 248.201 768.611 249.052C767.496 249.873 766.279 250.387 764.959 250.592C764.49 251.853 763.742 252.777 762.715 253.364C761.718 253.951 760.588 254.244 759.327 254.244ZM762.407 249.844C762.466 249.551 762.51 249.243 762.539 248.92C762.568 248.597 762.583 248.216 762.583 247.776C762.583 246.397 762.407 245.033 762.055 243.684C761.732 242.305 761.454 241.015 761.219 239.812C760.544 240.927 759.826 241.997 759.063 243.024C758.33 244.021 757.626 244.857 756.951 245.532C757.391 246.471 758.066 247.351 758.975 248.172C759.914 248.993 761.058 249.551 762.407 249.844ZM759.415 252.704C759.767 252.704 760.236 252.587 760.823 252.352C761.41 252.117 761.864 251.516 762.187 250.548C760.955 250.313 759.855 249.829 758.887 249.096C757.948 248.363 757.244 247.629 756.775 246.896C756.13 246.925 755.807 247.439 755.807 248.436C755.807 249.492 756.115 250.475 756.731 251.384C757.376 252.264 758.271 252.704 759.415 252.704ZM778.323 232.992C777.854 232.992 777.428 232.875 777.047 232.64C776.695 232.405 776.519 232.039 776.519 231.54C776.519 230.924 776.871 230.396 777.575 229.956C778.308 229.487 779.027 229.252 779.731 229.252C780.171 229.252 780.523 229.355 780.787 229.56C781.051 229.765 781.183 230.117 781.183 230.616C781.183 231.173 780.875 231.716 780.259 232.244C779.672 232.743 779.027 232.992 778.323 232.992ZM773.043 253.144C771.899 253.144 771.048 252.777 770.491 252.044C769.934 251.34 769.655 250.475 769.655 249.448C769.655 248.773 769.772 247.923 770.007 246.896C770.271 245.869 770.608 244.799 771.019 243.684C771.43 242.54 771.899 241.469 772.427 240.472C772.984 239.475 773.571 238.668 774.187 238.052C774.803 237.407 775.404 237.084 775.991 237.084C776.255 237.084 776.475 237.172 776.651 237.348C776.856 237.495 776.959 237.729 776.959 238.052C776.959 238.404 776.724 238.976 776.255 239.768C775.815 240.56 775.287 241.469 774.671 242.496C774.055 243.523 773.512 244.608 773.043 245.752C772.603 246.867 772.383 247.937 772.383 248.964C772.383 250.02 772.559 250.724 772.911 251.076C773.263 251.428 773.806 251.604 774.539 251.604C775.536 251.604 776.592 251.105 777.707 250.108C778.851 249.111 780.054 247.365 781.315 244.872L781.711 245.312C780.86 247.835 779.628 249.771 778.015 251.12C776.431 252.469 774.774 253.144 773.043 253.144ZM783.788 253.32C782.791 253.32 781.984 252.88 781.368 252C780.782 251.091 780.488 250.049 780.488 248.876C780.488 248.025 780.62 247.043 780.884 245.928C781.178 244.813 781.53 243.713 781.94 242.628C782.351 241.543 782.776 240.648 783.216 239.944C783.656 239.24 784.038 238.888 784.36 238.888C784.507 238.888 784.756 238.976 785.108 239.152C785.46 239.299 785.754 239.504 785.988 239.768C785.666 240.267 785.27 241.029 784.8 242.056C784.331 243.083 783.92 244.183 783.568 245.356C783.216 246.529 783.04 247.615 783.04 248.612C783.04 248.847 783.07 249.213 783.128 249.712C783.187 250.181 783.334 250.607 783.568 250.988C783.803 251.369 784.155 251.56 784.624 251.56C785.182 251.56 785.754 251.281 786.34 250.724C786.927 250.137 787.514 249.389 788.1 248.48C788.716 247.571 789.303 246.588 789.86 245.532C790.418 244.476 790.931 243.464 791.4 242.496C791.899 241.528 792.31 240.721 792.632 240.076C792.808 240.105 793.058 240.164 793.38 240.252C793.732 240.34 794.04 240.457 794.304 240.604C794.598 240.751 794.744 240.956 794.744 241.22C794.744 241.337 794.598 241.733 794.304 242.408C794.011 243.053 793.659 243.86 793.248 244.828C792.867 245.767 792.53 246.72 792.236 247.688C791.943 248.656 791.796 249.507 791.796 250.24C791.796 250.768 791.899 251.193 792.104 251.516C792.339 251.839 792.72 252 793.248 252C793.864 252 794.612 251.721 795.492 251.164C796.372 250.607 797.267 249.8 798.176 248.744C799.086 247.659 799.892 246.368 800.596 244.872L801.168 245.268C800.552 246.852 799.746 248.26 798.748 249.492C797.751 250.695 796.695 251.633 795.58 252.308C794.466 252.983 793.38 253.32 792.324 253.32C791.151 253.32 790.344 252.997 789.904 252.352C789.464 251.736 789.244 250.973 789.244 250.064C789.244 249.712 789.274 249.36 789.332 249.008C789.391 248.627 789.464 248.245 789.552 247.864C788.731 249.301 787.836 250.577 786.868 251.692C785.93 252.777 784.903 253.32 783.788 253.32ZM812.849 253.672C812.028 253.672 811.324 253.393 810.737 252.836C810.151 252.279 809.681 251.575 809.329 250.724C809.007 249.873 808.757 249.008 808.581 248.128C808.435 247.219 808.361 246.427 808.361 245.752C808.684 245.752 809.153 245.679 809.769 245.532C810.385 245.356 811.016 245.107 811.661 244.784C812.307 244.432 812.849 243.992 813.289 243.464C813.759 242.907 813.993 242.261 813.993 241.528C813.993 240.912 813.773 240.428 813.333 240.076C812.893 239.724 812.38 239.548 811.793 239.548C810.884 239.548 810.033 239.871 809.241 240.516C808.449 241.132 807.731 241.953 807.085 242.98C806.469 243.977 805.912 245.048 805.413 246.192C804.915 247.336 804.489 248.421 804.137 249.448C803.785 250.475 803.492 251.325 803.257 252C803.081 252.528 802.832 252.88 802.509 253.056C802.187 253.261 801.849 253.364 801.497 253.364C800.999 253.364 800.632 253.159 800.397 252.748C800.192 252.337 800.06 251.824 800.001 251.208C799.972 250.563 799.957 249.903 799.957 249.228C799.957 247.703 800.207 245.943 800.705 243.948C801.204 241.953 801.864 239.885 802.685 237.744C803.536 235.573 804.46 233.476 805.457 231.452C806.455 229.428 807.452 227.595 808.449 225.952C809.447 224.309 810.371 223.004 811.221 222.036C812.072 221.068 812.761 220.584 813.289 220.584C813.7 220.584 814.023 220.863 814.257 221.42C814.521 221.977 814.653 222.652 814.653 223.444C814.653 224.441 814.433 225.571 813.993 226.832C813.553 228.064 812.923 229.311 812.101 230.572C811.309 231.833 810.356 233.021 809.241 234.136C808.156 235.251 806.968 236.204 805.677 236.996C804.709 239.372 803.976 241.689 803.477 243.948C803.008 246.177 802.773 248.055 802.773 249.58C803.243 248.407 803.8 247.116 804.445 245.708C805.12 244.3 805.883 242.951 806.733 241.66C807.584 240.369 808.508 239.313 809.505 238.492C810.503 237.671 811.544 237.26 812.629 237.26C813.715 237.26 814.639 237.641 815.401 238.404C816.164 239.167 816.545 240.091 816.545 241.176C816.545 242.115 816.296 242.921 815.797 243.596C815.328 244.241 814.741 244.769 814.037 245.18C813.363 245.561 812.673 245.855 811.969 246.06C811.295 246.236 810.737 246.324 810.297 246.324C810.327 246.559 810.415 246.984 810.561 247.6C810.708 248.216 810.913 248.861 811.177 249.536C811.471 250.211 811.823 250.797 812.233 251.296C812.644 251.765 813.143 252 813.729 252C814.991 252 816.164 251.311 817.249 249.932C818.335 248.524 819.332 246.823 820.241 244.828L820.681 245.268C820.271 246.705 819.64 248.069 818.789 249.36C817.939 250.621 816.985 251.648 815.929 252.44C814.903 253.261 813.876 253.672 812.849 253.672ZM806.425 235.236C807.775 234.151 808.948 232.919 809.945 231.54C810.972 230.161 811.764 228.841 812.321 227.58C812.879 226.289 813.157 225.277 813.157 224.544C813.157 224.28 813.113 224.148 813.025 224.148C812.732 224.148 812.219 224.661 811.485 225.688C810.781 226.715 809.975 228.079 809.065 229.78C808.156 231.452 807.276 233.271 806.425 235.236ZM827.866 232.992C827.397 232.992 826.971 232.875 826.59 232.64C826.238 232.405 826.062 232.039 826.062 231.54C826.062 230.924 826.414 230.396 827.118 229.956C827.851 229.487 828.57 229.252 829.274 229.252C829.714 229.252 830.066 229.355 830.33 229.56C830.594 229.765 830.726 230.117 830.726 230.616C830.726 231.173 830.418 231.716 829.802 232.244C829.215 232.743 828.57 232.992 827.866 232.992ZM822.586 253.144C821.442 253.144 820.591 252.777 820.034 252.044C819.477 251.34 819.198 250.475 819.198 249.448C819.198 248.773 819.315 247.923 819.55 246.896C819.814 245.869 820.151 244.799 820.562 243.684C820.973 242.54 821.442 241.469 821.97 240.472C822.527 239.475 823.114 238.668 823.73 238.052C824.346 237.407 824.947 237.084 825.534 237.084C825.798 237.084 826.018 237.172 826.194 237.348C826.399 237.495 826.502 237.729 826.502 238.052C826.502 238.404 826.267 238.976 825.798 239.768C825.358 240.56 824.83 241.469 824.214 242.496C823.598 243.523 823.055 244.608 822.586 245.752C822.146 246.867 821.926 247.937 821.926 248.964C821.926 250.02 822.102 250.724 822.454 251.076C822.806 251.428 823.349 251.604 824.082 251.604C825.079 251.604 826.135 251.105 827.25 250.108C828.394 249.111 829.597 247.365 830.858 244.872L831.254 245.312C830.403 247.835 829.171 249.771 827.558 251.12C825.974 252.469 824.317 253.144 822.586 253.144Z" fill="black"/>
<path id="W&#195;&#179;lka Biska" d="M1264.24 431.828C1263.83 431.828 1263.32 431.725 1262.7 431.52C1262.11 431.344 1261.59 431.007 1261.12 430.508C1260.68 430.009 1260.46 429.276 1260.46 428.308C1260.46 427.281 1260.71 425.932 1261.2 424.26C1261.7 422.559 1262.27 420.681 1262.92 418.628C1263.68 416.252 1264.39 413.759 1265.03 411.148C1265.68 408.537 1266 406.059 1266 403.712C1266 402.627 1265.96 401.615 1265.87 400.676C1265.81 399.737 1265.59 398.989 1265.21 398.432C1264.86 397.845 1264.24 397.552 1263.36 397.552C1262.54 397.552 1261.83 397.801 1261.25 398.3C1260.69 398.769 1260.22 399.385 1259.84 400.148C1259.49 400.911 1259.22 401.717 1259.05 402.568C1258.9 403.419 1258.83 404.211 1258.83 404.944C1258.83 405.912 1258.96 406.704 1259.22 407.32C1258.08 407.32 1257.27 407.012 1256.8 406.396C1256.33 405.751 1256.1 405.003 1256.1 404.152C1256.1 403.243 1256.31 402.333 1256.72 401.424C1257.16 400.515 1257.74 399.679 1258.48 398.916C1259.24 398.124 1260.1 397.493 1261.07 397.024C1262.04 396.555 1263.07 396.32 1264.15 396.32C1265.97 396.32 1267.32 397.039 1268.2 398.476C1269.11 399.884 1269.56 401.776 1269.56 404.152C1269.56 406.293 1269.26 408.567 1268.64 410.972C1268.05 413.348 1267.39 415.665 1266.66 417.924C1265.96 420.124 1265.31 422.163 1264.72 424.04C1264.17 425.917 1263.89 427.487 1263.89 428.748C1263.89 429.305 1263.98 429.731 1264.15 430.024C1264.33 430.317 1264.68 430.464 1265.21 430.464C1265.94 430.464 1266.75 430.112 1267.63 429.408C1268.54 428.733 1269.45 427.809 1270.36 426.636C1271.29 425.463 1272.19 424.172 1273.04 422.764C1273.92 421.327 1274.71 419.86 1275.42 418.364C1276.15 416.868 1276.75 415.445 1277.22 414.096C1277.72 412.747 1278.03 411.588 1278.14 410.62C1279.11 410.62 1279.79 410.869 1280.17 411.368C1280.58 411.867 1280.78 412.336 1280.78 412.776C1280.78 413.245 1280.59 413.964 1280.21 414.932C1279.83 415.9 1279.38 416.985 1278.85 418.188C1278.17 419.801 1277.51 421.532 1276.87 423.38C1276.22 425.228 1275.9 426.973 1275.9 428.616C1275.9 429.173 1275.97 429.613 1276.12 429.936C1276.27 430.288 1276.6 430.464 1277.13 430.464C1277.95 430.464 1278.91 430.039 1279.99 429.188C1281.08 428.367 1282.19 427.237 1283.34 425.8C1284.51 424.333 1285.64 422.691 1286.72 420.872C1287.84 419.053 1288.84 417.161 1289.72 415.196C1290.6 413.201 1291.3 411.251 1291.83 409.344C1292.36 407.437 1292.62 405.677 1292.62 404.064C1292.62 402.597 1292.4 401.527 1291.96 400.852C1291.52 400.148 1290.93 399.693 1290.2 399.488C1290.61 398.784 1291.04 398.271 1291.48 397.948C1291.95 397.625 1292.37 397.464 1292.75 397.464C1293.37 397.464 1293.97 397.86 1294.56 398.652C1295.14 399.444 1295.44 400.676 1295.44 402.348C1295.44 403.961 1295.13 405.795 1294.51 407.848C1293.93 409.901 1293.12 412.043 1292.09 414.272C1291.07 416.472 1289.89 418.613 1288.57 420.696C1287.25 422.779 1285.87 424.656 1284.44 426.328C1283 428 1281.58 429.335 1280.17 430.332C1278.76 431.329 1277.45 431.828 1276.25 431.828C1275.69 431.828 1275.12 431.711 1274.54 431.476C1273.95 431.241 1273.45 430.875 1273.04 430.376C1272.66 429.907 1272.47 429.291 1272.47 428.528C1272.47 428.088 1272.54 427.531 1272.69 426.856C1272.86 426.152 1273.08 425.389 1273.35 424.568C1271.85 426.68 1270.31 428.411 1268.73 429.76C1267.17 431.139 1265.68 431.828 1264.24 431.828ZM1296.54 429.408C1295.27 429.408 1294.38 429.012 1293.85 428.22C1293.32 427.457 1293.06 426.519 1293.06 425.404C1293.06 424.495 1293.21 423.556 1293.5 422.588C1293.79 421.62 1294.17 420.711 1294.64 419.86C1295.14 419.009 1295.69 418.32 1296.27 417.792C1296.89 417.264 1297.5 417 1298.12 417C1298.38 417 1298.69 417.073 1299.04 417.22C1298.78 417.455 1298.46 417.895 1298.08 418.54C1297.72 419.156 1297.39 419.875 1297.06 420.696C1296.74 421.488 1296.46 422.28 1296.23 423.072C1296.02 423.864 1295.92 424.539 1295.92 425.096C1295.92 425.976 1296.07 426.621 1296.36 427.032C1296.65 427.413 1297.03 427.604 1297.5 427.604C1298.12 427.604 1298.85 427.281 1299.7 426.636C1300.55 425.961 1301.39 425.111 1302.21 424.084C1301.39 423.409 1300.75 422.529 1300.28 421.444C1299.84 420.329 1299.62 419.2 1299.62 418.056C1299.62 417.088 1299.78 416.179 1300.1 415.328C1300.45 414.477 1300.95 413.803 1301.6 413.304C1302.24 412.776 1303.02 412.512 1303.93 412.512C1305.13 412.512 1305.94 412.835 1306.35 413.48C1306.76 414.125 1306.96 414.932 1306.96 415.9C1306.96 417.044 1306.69 418.32 1306.13 419.728C1305.57 421.107 1304.87 422.441 1304.02 423.732C1304.54 424.025 1305.1 424.172 1305.69 424.172C1306.36 424.172 1307.18 423.952 1308.15 423.512C1309.12 423.043 1309.87 422.207 1310.4 421.004L1310.92 421.444C1310.34 422.823 1309.5 423.805 1308.42 424.392C1307.36 424.949 1306.35 425.228 1305.38 425.228C1304.59 425.228 1303.88 425.081 1303.27 424.788C1302.27 426.108 1301.17 427.208 1299.97 428.088C1298.79 428.968 1297.65 429.408 1296.54 429.408ZM1303 422.94C1303.74 421.855 1304.34 420.725 1304.81 419.552C1305.31 418.349 1305.56 417.22 1305.56 416.164C1305.56 415.313 1305.42 414.697 1305.16 414.316C1304.93 413.905 1304.62 413.7 1304.24 413.7C1303.65 413.7 1303.05 414.125 1302.43 414.976C1301.82 415.827 1301.51 416.897 1301.51 418.188C1301.51 419.039 1301.63 419.904 1301.86 420.784C1302.12 421.635 1302.51 422.353 1303 422.94ZM1305.42 409.344C1305.22 409.227 1305.06 409.036 1304.94 408.772C1304.85 408.508 1304.81 408.317 1304.81 408.2C1304.81 407.936 1304.95 407.525 1305.25 406.968C1305.57 406.381 1305.97 405.78 1306.44 405.164C1306.91 404.519 1307.4 403.976 1307.93 403.536C1308.46 403.096 1308.94 402.876 1309.38 402.876C1309.62 402.876 1309.82 402.979 1310 403.184C1310.21 403.36 1310.32 403.712 1310.35 404.24C1309.3 405.149 1308.37 406.015 1307.58 406.836C1306.79 407.657 1306.07 408.493 1305.42 409.344ZM1313.22 429.32C1311.96 429.32 1311.05 428.88 1310.49 428C1309.97 427.149 1309.7 426.079 1309.7 424.788C1309.7 423.38 1309.97 421.708 1310.49 419.772C1311.02 417.836 1311.71 415.797 1312.56 413.656C1313.44 411.515 1314.4 409.432 1315.42 407.408C1316.45 405.355 1317.48 403.492 1318.5 401.82C1319.53 400.148 1320.47 398.813 1321.32 397.816C1322.2 396.819 1322.89 396.32 1323.39 396.32C1323.71 396.32 1323.97 396.511 1324.18 396.892C1324.38 397.244 1324.54 397.684 1324.66 398.212C1324.78 398.711 1324.84 399.165 1324.84 399.576C1324.84 400.368 1324.63 401.409 1324.22 402.7C1323.84 403.961 1323.28 405.384 1322.55 406.968C1321.85 408.523 1321 410.107 1320 411.72C1319.03 413.304 1317.96 414.829 1316.79 416.296C1315.64 417.763 1314.42 419.024 1313.13 420.08C1312.96 420.872 1312.81 421.649 1312.69 422.412C1312.61 423.145 1312.56 423.849 1312.56 424.524C1312.56 426.783 1313.21 427.912 1314.5 427.912C1315.29 427.912 1316.07 427.56 1316.83 426.856C1317.62 426.152 1318.36 425.272 1319.03 424.216C1319.73 423.131 1320.34 422.016 1320.83 420.872L1321.49 421.224C1320.32 423.717 1319.04 425.697 1317.67 427.164C1316.29 428.601 1314.81 429.32 1313.22 429.32ZM1313.53 418.584C1314.56 417.557 1315.55 416.384 1316.52 415.064C1317.49 413.715 1318.38 412.321 1319.21 410.884C1320.06 409.447 1320.8 408.053 1321.45 406.704C1322.1 405.355 1322.59 404.152 1322.95 403.096C1323.3 402.011 1323.47 401.175 1323.47 400.588C1323.47 400.295 1323.43 400.104 1323.34 400.016C1323.28 399.928 1323.22 399.884 1323.17 399.884C1322.93 399.884 1322.52 400.265 1321.93 401.028C1321.38 401.761 1320.72 402.759 1319.95 404.02C1319.19 405.281 1318.41 406.719 1317.62 408.332C1316.83 409.945 1316.07 411.632 1315.33 413.392C1314.63 415.152 1314.03 416.883 1313.53 418.584ZM1333.04 429.672C1332.22 429.672 1331.51 429.393 1330.92 428.836C1330.34 428.279 1329.87 427.575 1329.52 426.724C1329.19 425.873 1328.94 425.008 1328.77 424.128C1328.62 423.219 1328.55 422.427 1328.55 421.752C1328.87 421.752 1329.34 421.679 1329.96 421.532C1330.57 421.356 1331.2 421.107 1331.85 420.784C1332.49 420.432 1333.04 419.992 1333.48 419.464C1333.95 418.907 1334.18 418.261 1334.18 417.528C1334.18 416.912 1333.96 416.428 1333.52 416.076C1333.08 415.724 1332.57 415.548 1331.98 415.548C1331.07 415.548 1330.22 415.871 1329.43 416.516C1328.64 417.132 1327.92 417.953 1327.27 418.98C1326.66 419.977 1326.1 421.048 1325.6 422.192C1325.1 423.336 1324.68 424.421 1324.32 425.448C1323.97 426.475 1323.68 427.325 1323.44 428C1323.27 428.528 1323.02 428.88 1322.7 429.056C1322.37 429.261 1322.04 429.364 1321.68 429.364C1321.19 429.364 1320.82 429.159 1320.58 428.748C1320.38 428.337 1320.25 427.824 1320.19 427.208C1320.16 426.563 1320.14 425.903 1320.14 425.228C1320.14 423.703 1320.39 421.943 1320.89 419.948C1321.39 417.953 1322.05 415.885 1322.87 413.744C1323.72 411.573 1324.65 409.476 1325.64 407.452C1326.64 405.428 1327.64 403.595 1328.64 401.952C1329.63 400.309 1330.56 399.004 1331.41 398.036C1332.26 397.068 1332.95 396.584 1333.48 396.584C1333.89 396.584 1334.21 396.863 1334.44 397.42C1334.71 397.977 1334.84 398.652 1334.84 399.444C1334.84 400.441 1334.62 401.571 1334.18 402.832C1333.74 404.064 1333.11 405.311 1332.29 406.572C1331.5 407.833 1330.54 409.021 1329.43 410.136C1328.34 411.251 1327.16 412.204 1325.86 412.996C1324.9 415.372 1324.16 417.689 1323.66 419.948C1323.2 422.177 1322.96 424.055 1322.96 425.58C1323.43 424.407 1323.99 423.116 1324.63 421.708C1325.31 420.3 1326.07 418.951 1326.92 417.66C1327.77 416.369 1328.7 415.313 1329.69 414.492C1330.69 413.671 1331.73 413.26 1332.82 413.26C1333.9 413.26 1334.83 413.641 1335.59 414.404C1336.35 415.167 1336.73 416.091 1336.73 417.176C1336.73 418.115 1336.48 418.921 1335.98 419.596C1335.52 420.241 1334.93 420.769 1334.22 421.18C1333.55 421.561 1332.86 421.855 1332.16 422.06C1331.48 422.236 1330.92 422.324 1330.48 422.324C1330.51 422.559 1330.6 422.984 1330.75 423.6C1330.9 424.216 1331.1 424.861 1331.36 425.536C1331.66 426.211 1332.01 426.797 1332.42 427.296C1332.83 427.765 1333.33 428 1333.92 428C1335.18 428 1336.35 427.311 1337.44 425.932C1338.52 424.524 1339.52 422.823 1340.43 420.828L1340.87 421.268C1340.46 422.705 1339.83 424.069 1338.98 425.36C1338.13 426.621 1337.17 427.648 1336.12 428.44C1335.09 429.261 1334.06 429.672 1333.04 429.672ZM1326.61 411.236C1327.96 410.151 1329.14 408.919 1330.13 407.54C1331.16 406.161 1331.95 404.841 1332.51 403.58C1333.07 402.289 1333.34 401.277 1333.34 400.544C1333.34 400.28 1333.3 400.148 1333.21 400.148C1332.92 400.148 1332.41 400.661 1331.67 401.688C1330.97 402.715 1330.16 404.079 1329.25 405.78C1328.34 407.452 1327.46 409.271 1326.61 411.236ZM1341.72 430.068C1340.81 430.068 1340.05 429.76 1339.43 429.144C1338.78 428.557 1338.46 427.648 1338.46 426.416C1338.46 425.36 1338.7 424.231 1339.17 423.028C1339.63 421.796 1340.28 420.593 1341.1 419.42C1341.92 418.217 1342.85 417.132 1343.87 416.164C1344.93 415.167 1346.03 414.375 1347.17 413.788C1348.35 413.201 1349.51 412.908 1350.65 412.908C1351.79 412.908 1352.75 413.216 1353.51 413.832C1354.27 414.419 1354.65 415.211 1354.65 416.208C1354.65 416.941 1354.45 417.44 1354.04 417.704C1353.66 417.968 1353.14 418.1 1352.5 418.1C1352.64 417.572 1352.72 417.059 1352.72 416.56C1352.72 415.885 1352.56 415.313 1352.23 414.844C1351.91 414.345 1351.35 414.096 1350.56 414.096C1349.74 414.096 1348.9 414.389 1348.05 414.976C1347.2 415.533 1346.38 416.296 1345.59 417.264C1344.8 418.203 1344.09 419.229 1343.48 420.344C1342.86 421.459 1342.38 422.559 1342.03 423.644C1341.67 424.729 1341.5 425.697 1341.5 426.548C1341.5 427.692 1341.89 428.264 1342.69 428.264C1343.36 428.264 1344.09 427.956 1344.89 427.34C1345.68 426.695 1346.48 425.888 1347.31 424.92C1348.16 423.923 1348.96 422.896 1349.73 421.84C1350.49 420.784 1351.16 419.816 1351.75 418.936C1351.87 418.76 1351.94 418.672 1351.97 418.672C1352.23 418.701 1352.59 418.819 1353.03 419.024C1353.47 419.2 1353.69 419.449 1353.69 419.772C1353.69 420.036 1353.55 420.403 1353.29 420.872C1353.03 421.312 1352.73 421.825 1352.41 422.412C1352.09 422.999 1351.79 423.6 1351.53 424.216C1351.27 424.803 1351.13 425.36 1351.13 425.888C1351.13 426.328 1351.25 426.768 1351.49 427.208C1351.72 427.619 1352.1 427.824 1352.63 427.824C1353.42 427.824 1354.46 427.252 1355.75 426.108C1357.04 424.935 1358.35 423.189 1359.67 420.872L1360.11 421.312C1359.49 422.896 1358.7 424.289 1357.73 425.492C1356.77 426.695 1355.72 427.633 1354.61 428.308C1353.52 428.983 1352.45 429.32 1351.4 429.32C1350.31 429.32 1349.51 428.997 1348.98 428.352C1348.48 427.707 1348.23 427.003 1348.23 426.24C1348.23 425.859 1348.27 425.433 1348.36 424.964C1347.1 426.665 1345.94 427.941 1344.89 428.792C1343.86 429.643 1342.8 430.068 1341.72 430.068ZM1375.92 431.828C1374.31 431.828 1373.09 431.549 1372.27 430.992C1371.45 430.464 1371.04 429.569 1371.04 428.308C1371.04 428.22 1371.11 428.176 1371.26 428.176C1371.46 428.176 1371.83 428.249 1372.36 428.396C1372.88 428.543 1373.9 428.616 1375.39 428.616C1377.91 428.616 1380.25 428.337 1382.39 427.78C1384.53 427.193 1386.38 426.401 1387.93 425.404C1389.52 424.407 1390.73 423.292 1391.58 422.06C1392.46 420.799 1392.9 419.508 1392.9 418.188C1392.9 416.985 1392.57 416.017 1391.89 415.284C1391.22 414.551 1390.32 413.993 1389.21 413.612C1388.12 413.231 1386.93 412.981 1385.64 412.864C1384.35 412.717 1383.08 412.644 1381.82 412.644C1381.26 412.644 1380.69 412.659 1380.1 412.688C1379.54 412.688 1379.01 412.688 1378.52 412.688C1377.84 415.064 1377.18 417.455 1376.54 419.86C1375.89 422.265 1375.23 424.597 1374.56 426.856C1373.82 426.856 1373.21 426.651 1372.71 426.24C1372.21 425.829 1371.96 425.331 1371.96 424.744C1371.96 424.392 1372.03 423.981 1372.18 423.512C1372.33 423.043 1372.46 422.617 1372.58 422.236C1372.75 421.649 1373.06 420.667 1373.5 419.288C1373.94 417.909 1374.47 416.296 1375.08 414.448C1375.73 412.6 1376.43 410.664 1377.2 408.64C1377.96 406.616 1378.74 404.636 1379.53 402.7C1380.35 400.764 1381.14 399.048 1381.9 397.552C1380.67 397.757 1379.63 398.051 1378.78 398.432C1377.96 398.813 1377.31 399.165 1376.84 399.488C1376.37 399.781 1376.04 399.928 1375.83 399.928C1375.63 399.928 1375.33 399.781 1374.95 399.488C1374.6 399.195 1374.42 398.945 1374.42 398.74C1375.89 398.124 1377.42 397.567 1379 397.068C1380.61 396.569 1382.56 396.32 1384.85 396.32C1385.82 396.32 1386.89 396.408 1388.06 396.584C1389.24 396.731 1390.35 397.053 1391.41 397.552C1392.46 398.021 1393.33 398.725 1394 399.664C1394.68 400.573 1395.02 401.791 1395.02 403.316C1395.02 404.753 1394.71 405.985 1394.09 407.012C1393.48 408.009 1392.67 408.845 1391.67 409.52C1390.67 410.165 1389.59 410.679 1388.42 411.06C1387.24 411.441 1386.08 411.72 1384.94 411.896C1387.11 412.013 1388.86 412.321 1390.18 412.82C1391.52 413.319 1392.54 413.92 1393.21 414.624C1393.92 415.299 1394.38 416.017 1394.62 416.78C1394.85 417.543 1394.97 418.276 1394.97 418.98C1394.97 420.681 1394.53 422.221 1393.65 423.6C1392.77 424.979 1391.61 426.181 1390.18 427.208C1388.74 428.235 1387.17 429.085 1385.47 429.76C1383.77 430.464 1382.08 430.977 1380.41 431.3C1378.74 431.652 1377.24 431.828 1375.92 431.828ZM1378.78 411.676C1380.39 411.617 1381.99 411.441 1383.58 411.148C1385.19 410.825 1386.66 410.327 1387.98 409.652C1389.3 408.977 1390.35 408.097 1391.14 407.012C1391.96 405.927 1392.38 404.577 1392.38 402.964C1392.38 401.439 1392.01 400.265 1391.28 399.444C1390.57 398.623 1389.65 398.051 1388.5 397.728C1387.39 397.405 1386.2 397.244 1384.94 397.244C1384.79 397.244 1384.65 397.244 1384.5 397.244C1384.38 397.244 1384.25 397.259 1384.1 397.288C1383.05 399.341 1382.08 401.6 1381.2 404.064C1380.35 406.528 1379.54 409.065 1378.78 411.676ZM1405.42 408.992C1404.95 408.992 1404.52 408.875 1404.14 408.64C1403.79 408.405 1403.61 408.039 1403.61 407.54C1403.61 406.924 1403.96 406.396 1404.67 405.956C1405.4 405.487 1406.12 405.252 1406.82 405.252C1407.26 405.252 1407.62 405.355 1407.88 405.56C1408.14 405.765 1408.28 406.117 1408.28 406.616C1408.28 407.173 1407.97 407.716 1407.35 408.244C1406.77 408.743 1406.12 408.992 1405.42 408.992ZM1400.14 429.144C1398.99 429.144 1398.14 428.777 1397.58 428.044C1397.03 427.34 1396.75 426.475 1396.75 425.448C1396.75 424.773 1396.87 423.923 1397.1 422.896C1397.36 421.869 1397.7 420.799 1398.11 419.684C1398.52 418.54 1398.99 417.469 1399.52 416.472C1400.08 415.475 1400.66 414.668 1401.28 414.052C1401.9 413.407 1402.5 413.084 1403.08 413.084C1403.35 413.084 1403.57 413.172 1403.74 413.348C1403.95 413.495 1404.05 413.729 1404.05 414.052C1404.05 414.404 1403.82 414.976 1403.35 415.768C1402.91 416.56 1402.38 417.469 1401.76 418.496C1401.15 419.523 1400.61 420.608 1400.14 421.752C1399.7 422.867 1399.48 423.937 1399.48 424.964C1399.48 426.02 1399.65 426.724 1400 427.076C1400.36 427.428 1400.9 427.604 1401.63 427.604C1402.63 427.604 1403.69 427.105 1404.8 426.108C1405.94 425.111 1407.15 423.365 1408.41 420.872L1408.8 421.312C1407.95 423.835 1406.72 425.771 1405.11 427.12C1403.52 428.469 1401.87 429.144 1400.14 429.144ZM1412.2 430.244C1410.82 430.244 1409.72 429.936 1408.9 429.32C1408.11 428.733 1407.55 428 1407.23 427.12C1406.88 426.24 1406.7 425.36 1406.7 424.48C1406.7 423.6 1406.82 422.925 1407.05 422.456C1407.29 421.987 1407.57 421.635 1407.89 421.4C1408.24 421.165 1408.56 420.989 1408.86 420.872C1409.18 420.755 1409.4 420.637 1409.52 420.52C1410.4 419.552 1411.2 418.54 1411.94 417.484C1412.67 416.428 1413.32 415.313 1413.87 414.14V413.612C1413.87 412.527 1414.05 411.764 1414.4 411.324C1414.78 410.855 1415.18 410.62 1415.59 410.62C1416.06 410.62 1416.29 410.811 1416.29 411.192C1416.29 411.339 1416.25 411.573 1416.16 411.896C1416.07 412.219 1416.03 412.629 1416.03 413.128C1416.03 414.096 1416.22 415.152 1416.6 416.296C1416.98 417.411 1417.36 418.599 1417.75 419.86C1418.13 421.092 1418.32 422.383 1418.32 423.732C1418.32 424.495 1418.23 425.213 1418.05 425.888C1419.08 425.712 1420.05 425.257 1420.96 424.524C1421.87 423.761 1422.75 422.559 1423.6 420.916L1423.99 421.356C1423.44 422.969 1422.6 424.201 1421.49 425.052C1420.37 425.873 1419.15 426.387 1417.83 426.592C1417.36 427.853 1416.62 428.777 1415.59 429.364C1414.59 429.951 1413.46 430.244 1412.2 430.244ZM1415.28 425.844C1415.34 425.551 1415.38 425.243 1415.41 424.92C1415.44 424.597 1415.46 424.216 1415.46 423.776C1415.46 422.397 1415.28 421.033 1414.93 419.684C1414.61 418.305 1414.33 417.015 1414.09 415.812C1413.42 416.927 1412.7 417.997 1411.94 419.024C1411.2 420.021 1410.5 420.857 1409.83 421.532C1410.27 422.471 1410.94 423.351 1411.85 424.172C1412.79 424.993 1413.93 425.551 1415.28 425.844ZM1412.29 428.704C1412.64 428.704 1413.11 428.587 1413.7 428.352C1414.28 428.117 1414.74 427.516 1415.06 426.548C1413.83 426.313 1412.73 425.829 1411.76 425.096C1410.82 424.363 1410.12 423.629 1409.65 422.896C1409 422.925 1408.68 423.439 1408.68 424.436C1408.68 425.492 1408.99 426.475 1409.61 427.384C1410.25 428.264 1411.15 428.704 1412.29 428.704ZM1435.82 429.672C1435 429.672 1434.29 429.393 1433.71 428.836C1433.12 428.279 1432.65 427.575 1432.3 426.724C1431.98 425.873 1431.73 425.008 1431.55 424.128C1431.4 423.219 1431.33 422.427 1431.33 421.752C1431.65 421.752 1432.12 421.679 1432.74 421.532C1433.35 421.356 1433.98 421.107 1434.63 420.784C1435.28 420.432 1435.82 419.992 1436.26 419.464C1436.73 418.907 1436.96 418.261 1436.96 417.528C1436.96 416.912 1436.74 416.428 1436.3 416.076C1435.86 415.724 1435.35 415.548 1434.76 415.548C1433.85 415.548 1433 415.871 1432.21 416.516C1431.42 417.132 1430.7 417.953 1430.05 418.98C1429.44 419.977 1428.88 421.048 1428.38 422.192C1427.88 423.336 1427.46 424.421 1427.11 425.448C1426.75 426.475 1426.46 427.325 1426.23 428C1426.05 428.528 1425.8 428.88 1425.48 429.056C1425.16 429.261 1424.82 429.364 1424.47 429.364C1423.97 429.364 1423.6 429.159 1423.37 428.748C1423.16 428.337 1423.03 427.824 1422.97 427.208C1422.94 426.563 1422.93 425.903 1422.93 425.228C1422.93 423.703 1423.18 421.943 1423.67 419.948C1424.17 417.953 1424.83 415.885 1425.65 413.744C1426.5 411.573 1427.43 409.476 1428.43 407.452C1429.42 405.428 1430.42 403.595 1431.42 401.952C1432.42 400.309 1433.34 399.004 1434.19 398.036C1435.04 397.068 1435.73 396.584 1436.26 396.584C1436.67 396.584 1436.99 396.863 1437.23 397.42C1437.49 397.977 1437.62 398.652 1437.62 399.444C1437.62 400.441 1437.4 401.571 1436.96 402.832C1436.52 404.064 1435.89 405.311 1435.07 406.572C1434.28 407.833 1433.32 409.021 1432.21 410.136C1431.12 411.251 1429.94 412.204 1428.65 412.996C1427.68 415.372 1426.94 417.689 1426.45 419.948C1425.98 422.177 1425.74 424.055 1425.74 425.58C1426.21 424.407 1426.77 423.116 1427.41 421.708C1428.09 420.3 1428.85 418.951 1429.7 417.66C1430.55 416.369 1431.48 415.313 1432.47 414.492C1433.47 413.671 1434.51 413.26 1435.6 413.26C1436.68 413.26 1437.61 413.641 1438.37 414.404C1439.13 415.167 1439.51 416.091 1439.51 417.176C1439.51 418.115 1439.26 418.921 1438.77 419.596C1438.3 420.241 1437.71 420.769 1437.01 421.18C1436.33 421.561 1435.64 421.855 1434.94 422.06C1434.26 422.236 1433.71 422.324 1433.27 422.324C1433.3 422.559 1433.38 422.984 1433.53 423.6C1433.68 424.216 1433.88 424.861 1434.15 425.536C1434.44 426.211 1434.79 426.797 1435.2 427.296C1435.61 427.765 1436.11 428 1436.7 428C1437.96 428 1439.13 427.311 1440.22 425.932C1441.3 424.524 1442.3 422.823 1443.21 420.828L1443.65 421.268C1443.24 422.705 1442.61 424.069 1441.76 425.36C1440.91 426.621 1439.95 427.648 1438.9 428.44C1437.87 429.261 1436.84 429.672 1435.82 429.672ZM1429.39 411.236C1430.74 410.151 1431.92 408.919 1432.91 407.54C1433.94 406.161 1434.73 404.841 1435.29 403.58C1435.85 402.289 1436.13 401.277 1436.13 400.544C1436.13 400.28 1436.08 400.148 1435.99 400.148C1435.7 400.148 1435.19 400.661 1434.45 401.688C1433.75 402.715 1432.94 404.079 1432.03 405.78C1431.12 407.452 1430.24 409.271 1429.39 411.236ZM1444.5 430.068C1443.59 430.068 1442.83 429.76 1442.21 429.144C1441.57 428.557 1441.24 427.648 1441.24 426.416C1441.24 425.36 1441.48 424.231 1441.95 423.028C1442.42 421.796 1443.06 420.593 1443.88 419.42C1444.7 418.217 1445.63 417.132 1446.65 416.164C1447.71 415.167 1448.81 414.375 1449.95 413.788C1451.13 413.201 1452.29 412.908 1453.43 412.908C1454.57 412.908 1455.53 413.216 1456.29 413.832C1457.05 414.419 1457.43 415.211 1457.43 416.208C1457.43 416.941 1457.23 417.44 1456.82 417.704C1456.44 417.968 1455.92 418.1 1455.28 418.1C1455.43 417.572 1455.5 417.059 1455.5 416.56C1455.5 415.885 1455.34 415.313 1455.01 414.844C1454.69 414.345 1454.13 414.096 1453.34 414.096C1452.52 414.096 1451.69 414.389 1450.83 414.976C1449.98 415.533 1449.16 416.296 1448.37 417.264C1447.58 418.203 1446.87 419.229 1446.26 420.344C1445.64 421.459 1445.16 422.559 1444.81 423.644C1444.45 424.729 1444.28 425.697 1444.28 426.548C1444.28 427.692 1444.67 428.264 1445.47 428.264C1446.14 428.264 1446.87 427.956 1447.67 427.34C1448.46 426.695 1449.27 425.888 1450.09 424.92C1450.94 423.923 1451.74 422.896 1452.51 421.84C1453.27 420.784 1453.94 419.816 1454.53 418.936C1454.65 418.76 1454.72 418.672 1454.75 418.672C1455.01 418.701 1455.37 418.819 1455.81 419.024C1456.25 419.2 1456.47 419.449 1456.47 419.772C1456.47 420.036 1456.33 420.403 1456.07 420.872C1455.81 421.312 1455.51 421.825 1455.19 422.412C1454.87 422.999 1454.57 423.6 1454.31 424.216C1454.05 424.803 1453.91 425.36 1453.91 425.888C1453.91 426.328 1454.03 426.768 1454.27 427.208C1454.5 427.619 1454.88 427.824 1455.41 427.824C1456.2 427.824 1457.24 427.252 1458.53 426.108C1459.83 424.935 1461.13 423.189 1462.45 420.872L1462.89 421.312C1462.27 422.896 1461.48 424.289 1460.51 425.492C1459.55 426.695 1458.51 427.633 1457.39 428.308C1456.31 428.983 1455.23 429.32 1454.18 429.32C1453.09 429.32 1452.29 428.997 1451.76 428.352C1451.26 427.707 1451.01 427.003 1451.01 426.24C1451.01 425.859 1451.05 425.433 1451.14 424.964C1449.88 426.665 1448.72 427.941 1447.67 428.792C1446.64 429.643 1445.58 430.068 1444.5 430.068Z" fill="black"/>
</g>
<g id="river">
<path id="river1" d="M977.255 275.041L963.986 283.998C961.41 284.958 957.85 283.931 951.38 282.007C944.431 275.804 940.34 272.669 932.472 268.075L918.872 271.392L909.252 268.075L901.291 261.441L893.661 248.172L870.441 236.23C869.793 230.74 869.565 227.762 872.099 224.62C875.635 222.252 877.155 218.254 879.729 210.356C878.301 203.363 876.942 202.801 874.753 200.404C870.192 195.151 866.774 194.335 859.494 196.092C846.878 204.853 839.124 209.399 824.331 216.99C818.703 216.798 815.415 216.342 809.072 214.336C802.155 216.481 797.255 215.719 788.506 214.336C783.187 210.396 780.385 207.792 775.9 202.394C772.791 201.617 770.593 200.404 767.939 200.404C765.285 200.404 759.331 202.003 752.016 205.048C746.81 203.875 743.967 203.046 739.411 200.404C731.376 202.023 728.151 203.73 722.825 207.039H716.19" stroke="#E5E5E5" stroke-width="3"/>
<path id="river5" d="M1921 491.236C1909.93 501.051 1901.38 505.346 1881.19 510.475C1865.06 496.481 1862.27 494.846 1851.01 491.236C1843.9 493.199 1836.5 496.923 1823.81 503.178C1814.46 498.82 1810.24 501.219 1802.91 506.495C1795.16 507.731 1793.1 505.775 1788.64 503.178H1780.02C1773.85 503.325 1770.68 502.316 1765.09 500.192C1765.42 509.327 1763.75 513.377 1756.47 518.105C1750.83 517.047 1750.5 513.682 1751.16 506.495L1746.51 500.192L1733.58 506.495H1725.62L1715.66 508.817L1699.74 499.197L1698.75 494.221L1679.18 491.567L1665.91 480.952L1642.69 472.991L1640.7 464.698L1618.47 458.064L1614.16 454.746L1611.17 447.117L1608.19 432.853L1594.25 426.882L1581.65 428.872M1581.65 428.872L1580.65 427.214H1576.01M1581.65 428.872L1576.01 427.214M1576.01 427.214L1572.69 425.555L1569.38 416.93L1562.41 410.628L1553.12 404.325L1541.18 397.027L1521.61 381.104L1501.7 374.47L1492.08 375.465L1478.15 372.48L1451.62 379.446L1432.04 364.85L1426.4 349.259L1420.77 349.591L1413.47 346.274L1402.52 347.601L1394.56 355.894L1382.29 356.557L1369.68 352.576H1363.71L1348.78 363.191L1339.16 366.84L1332.86 363.855L1325.23 353.24L1313.29 344.947L1306.98 345.61L1303.67 352.576L1306.98 357.22L1310.3 362.196V367.835C1307.52 372.583 1301.24 373.876 1288.74 374.304C1286.42 374.384 1283.88 374.433 1281.11 374.47L1269.83 367.835H1261.21L1251.26 375.465L1238.65 395.037L1235 400.344C1227.02 401.351 1222.3 399.44 1213.77 395.037C1209.59 392.739 1206.82 388.108 1201.83 379.446V370.489L1192.87 364.85L1183.92 366.84L1171.97 347.601L1158.71 344.947C1153.55 345.551 1151.95 346.805 1154.06 352.576C1156.02 354.367 1157.36 355.555 1160.03 357.884C1160.68 361.77 1161.04 363.949 1161.69 367.835L1158.71 370.489C1152.4 366.317 1149.37 365.052 1144.44 363.855C1137.95 357.327 1133.6 354.656 1124.87 351.249C1118.15 351.867 1114.37 353.815 1107.62 357.884C1100.71 358.488 1098.09 357.235 1097.67 349.591C1097.7 344.999 1098.21 342.201 1103.97 334.995C1108.13 332.199 1109.69 329.749 1111.6 324.38V312.438L1103.97 310.116L1096.01 315.092C1088.29 315.05 1086.35 316.494 1089.38 323.053C1092.08 328.756 1092.65 331.591 1089.38 334.995C1086.94 338.115 1085.22 338.486 1081.08 334.995L1071.46 328.029L1061.51 307.794V301.16L1053.88 287.559L1040.61 276.281C1035.07 275.087 1032.86 276.151 1030.66 281.588L1032.32 298.838C1028.8 304.501 1025.48 305.467 1018.06 303.482C1013.07 298.495 1011.16 294.464 1008.77 285.9C1006.01 280.668 1003.61 277.986 994.504 274.622C987.764 272.458 983.993 272.25 977.254 274.622L963.985 283.578C961.41 284.538 957.849 283.511 951.38 281.588C944.431 275.385 940.339 272.249 932.472 267.656L918.871 270.973L909.252 267.656L901.29 261.021L893.661 247.753L870.44 235.811C869.792 230.32 869.565 227.343 872.099 224.2C875.634 221.832 877.155 217.834 879.728 209.936C878.3 202.944 876.942 202.382 874.753 199.985C870.192 194.732 866.774 193.916 859.493 195.672C846.878 204.434 839.124 208.98 824.331 216.571C818.703 216.379 815.415 215.922 809.072 213.917C802.155 216.062 797.255 215.299 788.505 213.917C783.187 209.977 780.384 207.373 775.9 201.975C772.791 201.198 770.592 199.985 767.938 199.985C765.285 199.985 759.33 201.584 752.016 204.629C746.81 203.456 743.967 202.626 739.41 199.985C731.375 201.603 728.151 203.311 722.824 206.619C719.866 207.103 715.006 206.183 706.57 204.629L693.301 184.394C690.629 179.79 685.507 177.96 674.393 175.106L665.105 179.418L656.812 189.038L633.26 197.663C624.97 198.017 620.235 197.832 611.366 195.672C607.872 193.104 606.178 191.71 602.078 189.038H598.761L585.824 173.115C575.22 168.773 569.563 166.954 563.93 173.115C558.649 184.724 558.543 192.798 557.296 206.619C550.638 213.614 546.094 212.463 537.393 206.619L522.133 184.394C517.864 177.92 511.627 179.774 499.576 184.394C497.841 188.771 493.56 190.02 485.312 192.023C466.091 180.78 455.49 175.261 436.881 166.481C429.158 155.257 424.849 147.17 416.978 149.231L372.527 152.549C358.084 147.774 350.67 142.993 338.36 131.65L325.423 112.41C317.635 106.979 312.417 105.309 301.871 104.449C290.933 106.518 285.091 107.199 274.67 108.43C262.775 104.624 258.114 99.4318 250.454 89.19C244.471 85.0084 241.88 82.0316 237.849 76.2529C230.42 77.423 226.193 76.4946 218.609 73.2674C202.352 67.2387 194.984 61.9646 180.793 53.6959C166.133 57.1614 157.703 58.5689 141.981 59.3352C130.749 58.714 123.246 56.3843 104.497 43.4126C94.6653 41.6521 89.0047 42.229 77.9592 53.6959C75.1285 59.7204 72.2172 62.9413 63.6952 68.2916C56.1572 70.5291 51.7351 71.2013 42.4651 68.2916C23.4731 54.762 13.6912 48.8316 1 47.3932" stroke="#0094FF" stroke-width="3"/>
<path id="river2" d="M722.824 207.039C728.151 203.73 731.375 202.023 739.41 200.404C743.967 203.046 746.81 203.875 752.016 205.048C759.33 202.003 765.284 200.404 767.938 200.404C770.592 200.404 772.79 201.617 775.9 202.394C780.384 207.792 783.187 210.396 788.505 214.336C797.255 215.719 802.154 216.481 809.072 214.336C815.414 216.342 818.702 216.798 824.331 216.99C839.124 209.399 846.877 204.853 859.493 196.092C866.774 194.335 870.192 195.151 874.752 200.404C876.942 202.801 878.3 203.363 879.728 210.356C877.154 218.254 875.634 222.252 872.099 224.62C869.565 227.762 869.792 230.74 870.44 236.23L893.66 248.172L901.29 261.441L909.251 268.075L918.871 271.392L932.472 268.075C940.339 272.669 944.43 275.804 951.38 282.007C957.849 283.931 961.41 284.958 963.985 283.998L977.254 275.041C983.993 272.67 987.763 272.877 994.504 275.041C1003.61 278.405 1006.01 281.087 1008.77 286.32C1011.16 294.883 1013.07 298.915 1018.06 303.901C1025.48 305.886 1028.8 304.92 1032.32 299.257L1030.66 282.007C1032.86 276.571 1035.07 275.506 1040.61 276.7L1053.88 287.978L1061.51 301.579V308.213L1071.46 328.448L1081.08 335.414C1085.22 338.905 1086.94 338.535 1089.38 335.414C1092.65 332.011 1092.08 329.175 1089.38 323.473C1086.35 316.914 1088.29 315.47 1096.01 315.511L1103.97 310.535L1111.6 312.857V324.799C1109.69 330.168 1108.13 332.618 1103.97 335.414C1098.21 342.621 1097.7 345.418 1097.67 350.01C1098.09 357.654 1100.71 358.908 1107.62 358.303C1114.37 354.235 1118.15 352.286 1124.87 351.669C1133.6 355.075 1137.95 357.746 1144.44 364.274C1149.36 365.471 1152.4 366.736 1158.71 370.909L1161.69 368.255C1161.04 364.368 1160.68 362.19 1160.03 358.303C1157.36 355.974 1156.02 354.786 1154.06 352.996C1151.95 347.225 1153.55 345.97 1158.71 345.366L1171.97 348.02L1183.92 367.26L1192.87 365.269L1201.83 370.909V379.865C1206.82 388.528 1209.59 393.158 1213.77 395.456C1222.3 399.859 1227.02 401.77 1235 400.763L1238.65 395.456L1251.26 375.884L1261.21 368.255H1269.83L1281.11 374.889C1283.88 374.853 1286.42 374.803 1288.74 374.723" stroke="#0094FF" stroke-width="3"/>
<path id="river3" d="M1 47.3932C13.6912 48.8316 23.4731 54.762 42.4651 68.2916C51.7351 71.2013 56.1572 70.5291 63.6952 68.2916C72.2172 62.9413 75.1285 59.7204 77.9592 53.6959C89.0047 42.229 94.6653 41.6521 104.497 43.4126C123.246 56.3843 130.749 58.714 141.981 59.3352C157.703 58.5689 166.133 57.1614 180.793 53.6959C194.984 61.9646 202.352 67.2387 218.609 73.2674C226.193 76.4946 230.42 77.423 237.849 76.2529C241.88 82.0316 244.471 85.0084 250.454 89.19C258.114 99.4318 262.775 104.624 274.67 108.43C285.091 107.199 290.933 106.518 301.871 104.449C312.417 105.309 317.635 106.979 325.423 112.41L338.36 131.65C350.67 142.993 358.084 147.774 372.527 152.549L416.978 149.231C424.849 147.17 429.158 155.257 436.881 166.481C455.49 175.261 466.091 180.78 485.312 192.023C493.56 190.02 497.841 188.771 499.576 184.394C511.627 179.774 517.864 177.92 522.133 184.394L537.393 206.619C546.094 212.463 550.638 213.614 557.296 206.619C558.543 192.798 558.649 184.724 563.93 173.115C569.563 166.954 575.22 168.773 585.824 173.115L598.761 189.038H602.078C606.178 191.71 607.872 193.104 611.366 195.672C620.235 197.833 624.97 198.017 633.26 197.663L656.812 189.038L665.105 179.418L674.393 175.106C685.507 177.96 690.629 179.79 693.301 184.394C693.301 184.394 705 202.5 706 203.5C707 204.5 711.967 205.937 716.5 206.5" stroke="#0094FF" stroke-width="3"/>
<path id="river4" d="M1921 491.49C1909.93 501.303 1901.38 505.597 1881.19 510.726C1865.05 496.735 1862.26 495.1 1851 491.49C1843.89 493.453 1836.49 497.176 1823.8 503.429C1814.45 499.073 1810.23 501.471 1802.9 506.746C1795.15 507.982 1793.08 506.026 1788.63 503.429H1780.01C1773.84 503.577 1770.66 502.568 1765.08 500.445C1765.41 509.578 1763.74 513.626 1756.45 518.354C1750.81 517.296 1750.49 513.931 1751.14 506.746L1746.5 500.445L1733.56 506.746H1725.6L1715.65 509.067L1699.72 499.45L1698.73 494.475L1679.15 491.822L1665.88 481.209L1642.66 473.249L1640.67 464.958L1618.44 458.325L1614.13 455.009L1611.14 447.381L1608.16 433.12L1594.22 427.15L1581.62 429.14M1581.62 429.14L1580.62 427.482H1575.98M1581.62 429.14L1575.98 427.482M1575.98 427.482L1572.66 425.824L1569.34 417.201L1562.38 410.9L1553.09 404.598L1541.14 397.302L1521.57 381.383L1501.67 374.75L1492.04 375.745L1478.11 372.76L1451.57 379.725L1432 365.132L1426.36 349.545L1420.72 349.876L1413.42 346.56L1402.47 347.886L1394.51 356.178L1382.23 356.841L1369.63 352.861H1363.66L1348.73 363.474L1339.11 367.122L1332.8 364.137L1325.17 353.525L1313.23 345.233L1306.93 345.897L1303.61 352.861L1306.93 357.504L1310.24 362.479V368.117C1306.94 373.745 1298.73 374.517 1281.05 374.75L1269.77 368.117H1261.14L1251.19 375.745L1238.59 395.312L1234.94 400.619C1226.96 401.625 1222.24 399.714 1213.7 395.312C1209.52 393.015 1206.75 388.385 1201.76 379.725V370.77L1192.8 365.132L1183.85 367.122L1171.9 347.886L1158.63 345.233C1153.48 345.837 1151.88 347.092 1153.99 352.861C1155.94 354.651 1157.29 355.839 1159.96 358.168C1160.61 362.053 1160.97 364.232 1161.62 368.117L1158.63 370.77C1152.33 366.599 1149.29 365.334 1144.37 364.137C1137.88 357.611 1133.53 354.941 1124.79 351.535C1118.07 352.152 1114.29 354.1 1107.54 358.168C1100.63 358.772 1098.01 357.518 1097.59 349.876C1097.63 345.285 1098.13 342.488 1103.89 335.284C1108.06 332.488 1109.61 330.039 1111.52 324.671V312.732L1103.89 310.41L1095.93 315.385C1088.21 315.343 1086.27 316.787 1089.3 323.345C1092 329.046 1092.57 331.881 1089.3 335.284C1086.86 338.403 1085.14 338.774 1081 335.284L1071.38 328.319L1061.43 308.089V301.456L1053.8 287.858L1040.53 276.582C1034.98 275.389 1032.77 276.453 1030.58 281.889L1032.24 299.134C1028.72 304.796 1025.4 305.762 1017.97 303.777C1012.98 298.792 1011.07 294.761 1008.68 286.2C1005.92 280.969 1003.52 278.287 994.416 274.924C987.675 272.76 983.904 272.553 977.165 274.924L963.895 283.878C961.319 284.838 957.758 283.811 951.288 281.889C944.338 275.687 940.246 272.552 932.379 267.959L918.777 271.276L909.156 267.959L901.194 261.326L893.564 248.06L870.341 236.121C869.693 230.632 869.466 227.655 872 224.513C875.536 222.146 877.056 218.149 879.63 210.253C878.202 203.261 876.843 202.7 874.654 200.303C870.093 195.051 866.674 194.235 859.393 195.992C846.776 204.751 839.021 209.297 824.227 216.886C818.598 216.694 815.31 216.237 808.967 214.232C802.049 216.377 797.149 215.614 788.398 214.232C783.079 210.293 780.277 207.689 775.792 202.293C772.682 201.516 770.484 200.303 767.83 200.303C765.175 200.303 759.221 201.902 751.905 204.946C746.699 203.774 743.856 202.944 739.299 200.303C731.263 201.921 728.038 203.628 722.711 206.936H716.076" stroke="#0094FF" stroke-width="3"/>
<path id="river6" d="M1921 491.572C1909.93 501.388 1901.38 505.682 1881.19 510.812C1865.06 496.818 1862.27 495.182 1851.01 491.572C1843.9 493.535 1836.5 497.259 1823.81 503.514C1814.46 499.156 1810.24 501.556 1802.91 506.831C1795.16 508.068 1793.1 506.111 1788.64 503.514H1780.02C1773.85 503.662 1770.68 502.652 1765.09 500.529C1765.42 509.664 1763.75 513.713 1756.47 518.441C1750.83 517.383 1750.5 514.018 1751.16 506.831L1746.51 500.529L1733.58 506.831H1725.62L1715.66 509.153L1699.74 499.533L1698.75 494.558L1679.18 491.904L1665.91 481.289L1642.69 473.327L1640.7 465.034L1618.47 458.4L1614.16 455.083L1611.17 447.453L1608.19 433.189L1594.25 427.218L1581.65 429.209M1581.65 429.209L1580.65 427.55H1576.01M1581.65 429.209L1576.01 427.55M1576.01 427.55L1572.69 425.891L1569.38 417.267L1562.41 410.964L1553.12 404.661L1541.18 397.363L1521.61 381.441L1501.7 374.806L1492.08 375.802L1478.15 372.816L1451.62 379.782L1432.04 365.186L1426.4 349.596L1420.77 349.927L1413.47 346.61L1402.52 347.937L1394.56 356.23L1382.29 356.893L1369.68 352.913H1363.71L1348.78 363.528L1339.16 367.177L1332.86 364.191L1325.23 353.576L1313.29 345.283L1306.98 345.947L1303.67 352.913L1306.98 357.557L1310.3 362.533V368.172C1307.52 372.92 1301.24 374.212 1288.74 374.64C1286.42 374.72 1283.88 374.77 1281.11 374.806L1269.83 368.172H1261.21L1251.26 375.802L1238.65 395.373L1235 400.681C1227.02 401.687 1222.3 399.776 1213.77 395.373C1209.59 393.075 1206.82 388.445 1201.83 379.782V370.826L1192.87 365.186L1183.92 367.177L1171.97 347.937L1158.71 345.283C1153.55 345.887 1151.95 347.142 1154.06 352.913C1156.02 354.703 1157.36 355.892 1160.03 358.22C1160.68 362.107 1161.04 364.286 1161.69 368.172L1158.71 370.826C1152.4 366.653 1149.37 365.388 1144.44 364.191C1137.95 357.663 1133.6 354.993 1124.87 351.586C1118.15 352.203 1114.37 354.152 1107.62 358.22C1100.71 358.825 1098.09 357.571 1097.67 349.927C1097.7 345.335 1098.21 342.538 1103.97 335.332C1108.13 332.535 1109.69 330.085 1111.6 324.717V312.775L1103.97 310.453L1096.01 315.428C1088.29 315.387 1086.35 316.831 1089.38 323.39C1092.08 329.092 1092.65 331.928 1089.38 335.332C1086.94 338.452 1085.22 338.823 1081.08 335.332L1071.46 328.365L1061.51 308.13V301.496L1053.88 287.895L1040.61 276.617C1035.07 275.423 1032.86 276.488 1030.66 281.925L1032.32 299.174C1028.8 304.837 1025.48 305.803 1018.06 303.818C1013.07 298.832 1011.16 294.8 1008.77 286.237C1006.01 281.004 1003.61 278.322 994.504 274.958C987.764 272.794 983.993 272.587 977.254 274.958L963.985 283.915C961.41 284.875 957.849 283.848 951.38 281.925C944.431 275.721 940.339 272.586 932.472 267.992L918.871 271.309L909.252 267.992L901.29 261.358L893.661 248.089L870.44 236.147C869.792 230.657 869.565 227.679 872.099 224.537C875.634 222.169 877.155 218.171 879.728 210.273C878.3 203.28 876.942 202.718 874.753 200.321C870.192 195.068 866.774 194.252 859.493 196.009C846.878 204.77 839.124 209.317 824.331 216.907C818.703 216.715 815.415 216.259 809.072 214.253C802.155 216.398 797.255 215.636 788.505 214.253C783.187 210.313 780.384 207.709 775.9 202.312C772.791 201.534 770.592 200.321 767.938 200.321C765.285 200.321 759.33 201.92 752.016 204.965C746.81 203.792 743.967 202.963 739.41 200.321C731.375 201.94 728.151 203.647 722.824 206.956C719.866 207.44 715.006 206.52 706.57 204.965L693.301 184.73C690.629 180.127 685.507 178.296 674.393 175.442L665.105 179.755L656.812 189.374L633.26 197.999C624.97 198.354 620.235 198.169 611.366 196.009C607.872 193.441 606.178 192.046 602.078 189.374H598.761L585.824 173.452C575.22 169.109 569.563 167.29 563.93 173.452C558.649 185.061 558.543 193.135 557.296 206.956C550.638 213.951 546.094 212.799 537.393 206.956L522.133 184.73C517.864 178.257 511.627 180.11 499.576 184.73C497.841 189.107 493.56 190.356 485.312 192.36C466.091 181.117 455.49 175.597 436.881 166.817C429.158 155.593 424.849 147.507 416.978 149.568L372.527 152.885C358.084 148.11 350.67 143.329 338.36 131.987L325.423 112.747C317.635 107.315 312.417 105.645 301.871 104.786C290.933 106.854 285.091 107.536 274.67 108.766C262.775 104.961 258.114 99.7683 250.454 89.5265C244.471 85.3448 241.88 82.368 237.849 76.5893C230.42 77.7594 226.193 76.831 218.609 73.6039C202.352 67.5751 194.984 62.3011 180.793 54.0323C166.133 57.4978 157.703 58.9053 141.981 59.6716C130.749 59.0505 123.246 56.7208 104.497 43.749C94.6653 41.9886 89.0047 42.5655 77.9592 54.0323C75.1285 60.0569 72.2172 63.2777 63.6952 68.628C56.1572 70.8655 51.7351 71.5377 42.4651 68.628C23.4731 55.0984 13.6912 49.168 1 47.7296" stroke="#0094FF" stroke-width="3"/>
</g>
</g>
</svg>
